<?xml version="1.0" encoding="UTF-8"?>
<svg xmlns="http://www.w3.org/2000/svg" viewBox="0 0 1000 1000">
  <defs>
    <style>
      .uuid-c9e98a3c-d7cd-425b-8263-87bf319cddfb {
        fill: #231f20;
      }

      .uuid-c9e98a3c-d7cd-425b-8263-87bf319cddfb, .uuid-e7b59d86-a8dc-44c0-96a9-e1ba21414d12 {
        font-family: SeriaPro, 'Seria Pro';
      }

      .uuid-c9e98a3c-d7cd-425b-8263-87bf319cddfb, .uuid-e7b59d86-a8dc-44c0-96a9-e1ba21414d12, .uuid-42eec513-cc98-48b1-8e0f-3611f7bea0db {
        font-size: 25px;
      }

      .uuid-6b633d97-dc79-4fbb-8282-bb62c34c3a00, .uuid-04fe5d90-0ab3-4a97-bd63-07d9627b9a14 {
        fill: none;
      }

      .uuid-6b633d97-dc79-4fbb-8282-bb62c34c3a00, .uuid-04fe5d90-0ab3-4a97-bd63-07d9627b9a14, .uuid-98cf17b8-7caa-4a6a-92b8-3dfaab990bd7 {
        stroke: #fff;
        stroke-miterlimit: 10;
      }

      .uuid-6b633d97-dc79-4fbb-8282-bb62c34c3a00, .uuid-98cf17b8-7caa-4a6a-92b8-3dfaab990bd7 {
        stroke-width: 2.83px;
      }

      .uuid-04fe5d90-0ab3-4a97-bd63-07d9627b9a14 {
        stroke-width: 2.83px;
      }

      .uuid-e7b59d86-a8dc-44c0-96a9-e1ba21414d12, .uuid-42eec513-cc98-48b1-8e0f-3611f7bea0db, .uuid-98cf17b8-7caa-4a6a-92b8-3dfaab990bd7, .uuid-c184d6a4-eb7e-4c63-bf3e-9295201a6219 {
        fill: #fff;
      }

      .uuid-42eec513-cc98-48b1-8e0f-3611f7bea0db {
        font-family: Athelas-Regular, Athelas;
      }

      .uuid-98cf17b8-7caa-4a6a-92b8-3dfaab990bd7 {
        stroke-linecap: round;
      }
    </style>
  </defs>
  <g id="uuid-dae08f99-523c-4eb5-93c2-37781b1cc6e8" data-name="Up">
    <path class="uuid-04fe5d90-0ab3-4a97-bd63-07d9627b9a14" d="M635.6,716.8s-.07.05-.11.08c-43.62,33.26-98.1,53.02-157.18,53.02s-114.01-19.92-157.72-53.44c-.94-.72-1.88-1.45-2.8-2.19h-.01c-11.5-9.07-22.2-19.08-32.01-29.93-.75-.83-1.49-1.67-2.23-2.51-20.97-23.82-37.64-51.52-48.8-81.89,6.97-8.62,14.44-16.93,22.4-24.88,2.18-2.18,4.39-4.33,6.63-6.44,10.86,40.16,32.69,75.82,62.08,103.54.79.75,1.59,1.49,2.39,2.23,10.53,9.65,21.99,18.3,34.25,25.8h.01c.97.6,1.95,1.19,2.94,1.77,33.08,19.54,71.66,30.76,112.87,30.76s79.08-11.01,111.95-30.23c.11-.07.23-.13.34-.2,14.62,5.85,29.65,10.7,45,14.51Z"/>
    <path class="uuid-04fe5d90-0ab3-4a97-bd63-07d9627b9a14" d="M536.66,297.31c-1.05-.3-2.1-.59-3.16-.86-18.05-4.74-37-7.26-56.54-7.26s-40.18,2.75-58.95,7.91c-1.06.28-2.12.58-3.17.89-13.94,4.05-27.32,9.43-39.98,16-1.06.54-2.12,1.1-3.17,1.67-69.63,37.52-116.95,111.11-116.95,195.75,0,5.65.21,11.24.63,16.78-8.57,7.08-16.84,14.61-24.8,22.57-2.91,2.91-5.76,5.86-8.55,8.86-2.93-15.62-4.47-31.74-4.47-48.21,0-110.13,68.64-204.24,165.48-241.87,1.1-.44,2.2-.86,3.31-1.26,13.62-5.09,27.78-9.06,42.38-11.8,1.11-.21,2.22-.41,3.33-.6,14.59-2.55,29.59-3.88,44.91-3.88,14.47,0,28.66,1.19,42.49,3.46,1.11.19,2.21.38,3.32.57,5.59,13.39,10.23,27.18,13.89,41.28Z"/>
    <path class="uuid-04fe5d90-0ab3-4a97-bd63-07d9627b9a14" d="M737.72,510.49c0,16.47-1.54,32.58-4.47,48.2-2.67,14.19-6.49,27.97-11.37,41.25-11.2,30.49-27.96,58.3-49.06,82.19-.75.85-1.5,1.69-2.26,2.52-.76.83-1.52,1.66-2.28,2.48-14.52-2.4-28.78-5.82-42.7-10.21.75-.67,1.5-1.34,2.24-2.01.81-.74,1.61-1.48,2.41-2.24,29.67-27.8,51.7-63.64,62.63-104.05,3.6-13.32,5.99-27.15,7.05-41.34.42-5.54.63-11.14.63-16.79,0-85.64-48.45-159.97-119.43-197.07-1.05-.54-3.76-1.73-4.82-2.26-2.84-15.43-6.59-30.62-11.46-45.42,1.1.39,3.75,1.48,4.85,1.89h0c98.19,36.96,168.04,131.76,168.04,242.86Z"/>
  </g>
  <g id="uuid-2c7371e2-eaa2-4182-8e1e-3c01cb0db8c9" data-name="Right">
    <path class="uuid-6b633d97-dc79-4fbb-8282-bb62c34c3a00" d="M816.94,713.51c-11.4,3.28-23,5.98-34.76,8.07-.93.17-1.86.34-2.79.49-19.38,3.31-39.19,4.99-59.25,4.99-28.88,0-57.22-3.49-84.54-10.26-15.35-3.81-30.38-8.66-45-14.51-42.22-16.89-81.06-42.15-114.45-74.92.35-.32.7-.66,1.04-.99.75-.72,1.51-1.46,2.25-2.19.75-.73,1.5-1.47,2.24-2.21,1.07-1.07,2.13-2.14,3.18-3.22.14-.14.28-.29.42-.43,1.01-1.04,2.01-2.08,3-3.13l.04-.04c.91-.96,1.81-1.92,2.71-2.89,1.34-1.45,2.68-2.92,4-4.39.83-.93,1.66-1.86,2.48-2.8.58-.66,1.15-1.32,1.72-1.98.48-.55.95-1.1,1.42-1.65,35.71,35.2,78.4,60.78,124.93,75.47,13.92,4.39,28.18,7.81,42.7,10.21,16.98,2.82,34.31,4.26,51.86,4.26,16.45,0,32.71-1.26,48.66-3.74.96-.15,1.91-.3,2.86-.46-.34-.9-.67-1.8-1.02-2.7-11.6-30.38-27.98-58.88-48.76-84.55,4.88-13.28,8.7-27.06,11.37-41.25,32.27,34.56,56.75,74.59,72.54,117.94.33.89.65,1.78.97,2.67,3.98,11.19,7.38,22.61,10.18,34.21Z"/>
    <path class="uuid-6b633d97-dc79-4fbb-8282-bb62c34c3a00" d="M477.93,124.79c8.44,8.34,16.47,17.13,24.04,26.37.6.73,1.21,1.46,1.79,2.19,12.37,15.28,23.52,31.74,33.34,49.23,14.13,25.19,24.95,51.61,32.41,78.75,4.19,15.25,7.31,30.73,9.36,46.35,5.92,45.09,6.68,87.98-5.57,133.13-11.81-3.36-31.01-7.22-37.61-8.37,13.23-48.37,13.89-95.09,3.94-142.86-2.98-14.29-6.97-28.4-11.98-42.24-5.85-16.19-13.07-32.01-21.65-47.31-8.05-14.35-17.1-27.91-27.07-40.61-.6-.76-1.2-1.52-1.8-2.27-.62.74-1.24,1.47-1.86,2.21-20.82,24.98-32.98,45.51-45.2,76.19-13.97,2.24-28.7,7.19-42.38,11.8,14.36-45.05,33.44-79.82,63.53-114.8.61-.72,1.23-1.44,1.85-2.15,7.81-8.95,16.11-17.5,24.86-25.61Z"/>
  </g>
  <g id="uuid-aa064180-9d13-41ac-ac1b-2ff465c36ae5" data-name="Left">
    <path class="uuid-6b633d97-dc79-4fbb-8282-bb62c34c3a00" d="M562.85,494.95c-.32.89-.65,1.78-.98,2.67-.46,1.24-.93,2.47-1.41,3.7-.45,1.17-.91,2.33-1.37,3.49-.46,1.16-.93,2.31-1.41,3.47-.47,1.15-.95,2.3-1.44,3.45-.49,1.16-.99,2.32-1.5,3.48-.96,2.19-1.94,4.38-2.95,6.55-.04.11-.09.22-.14.32-.52,1.1-1.03,2.21-1.56,3.3-.48,1.02-.98,2.04-1.48,3.06-.11.25-.23.49-.36.74-1.02,2.1-2.08,4.19-3.16,6.27-.4.76-.79,1.53-1.2,2.29-.82,1.56-1.65,3.11-2.5,4.66-.4.73-.8,1.46-1.21,2.19-.43.79-.88,1.59-1.33,2.38-.93,1.64-1.87,3.27-2.83,4.9-.75,1.28-1.51,2.56-2.28,3.83-.08.12-.15.24-.24.37-.62,1.04-1.26,2.07-1.91,3.11-.98,1.58-1.98,3.16-3,4.74-.65,1.01-1.31,2.02-1.97,3.02-1.63,2.48-3.3,4.94-5,7.38-.6.85-1.2,1.7-1.8,2.55-.12.17-.24.35-.37.52-.67.94-1.35,1.89-2.04,2.82-.74,1.02-1.49,2.04-2.24,3.05-1.51,2.03-3.05,4.04-4.6,6.03-.78,1-1.56,1.99-2.35,2.98-.79.99-1.59,1.98-2.39,2.96-.8.99-1.61,1.96-2.42,2.94-.6.73-1.21,1.46-1.83,2.19-.31.37-.62.73-.93,1.09-.47.55-.94,1.1-1.42,1.65-.57.66-1.14,1.32-1.72,1.98-.82.94-1.65,1.87-2.48,2.8-1.32,1.47-2.66,2.94-4,4.39-.9.97-1.8,1.93-2.71,2.89l-.04.04c-.99,1.05-1.99,2.09-3,3.13-.14.14-.28.29-.42.43-1.05,1.08-2.11,2.15-3.18,3.22-.74.74-1.49,1.48-2.24,2.21-.74.73-1.5,1.47-2.25,2.19-.34.33-.69.67-1.04.99-33.29,31.9-71.83,56.44-113.65,72.82h-.01c-12.26-7.5-23.72-16.15-34.25-25.8,45.94-14.22,88.18-39.04,123.73-73.24.28-.26.56-.52.83-.79,1.23-1.19,2.45-2.39,3.66-3.6,7.05-7.05,13.74-14.39,20.01-21.98.25-.29.48-.57.72-.86.62-.74,1.22-1.49,1.82-2.24,1.41-1.73,2.78-3.47,4.14-5.23.68-.88,1.36-1.76,2.02-2.65.67-.88,1.34-1.77,1.99-2.66.67-.89,1.32-1.78,1.96-2.68.46-.61.9-1.24,1.35-1.87.01-.03.03-.05.05-.08.78-1.08,1.54-2.17,2.29-3.26.87-1.25,1.73-2.5,2.57-3.77.73-1.07,1.45-2.15,2.15-3.24.63-.95,1.24-1.91,1.85-2.86.06-.08.11-.17.16-.25.7-1.09,1.39-2.19,2.06-3.28.59-.95,1.17-1.9,1.75-2.85.1-.17.2-.33.3-.5,1.31-2.17,2.59-4.36,3.83-6.56.41-.7.81-1.41,1.2-2.12.42-.74.83-1.49,1.24-2.24.56-1.01,1.11-2.03,1.65-3.04.09-.17.18-.33.27-.5,1.03-1.94,2.03-3.89,3.02-5.84.15-.31.31-.62.46-.93.28-.57.56-1.13.84-1.69.28-.57.56-1.14.83-1.7.42-.87.84-1.73,1.25-2.61.01,0,.01-.03.02-.04.79-1.68,1.57-3.36,2.34-5.05.35-.79.71-1.58,1.05-2.37.11-.25.22-.49.33-.73.4-.92.8-1.85,1.19-2.77.19-.43.37-.86.55-1.29.07-.17.14-.34.21-.52.39-.93.78-1.86,1.16-2.8.24-.58.47-1.17.71-1.75.23-.58.46-1.17.69-1.75.03-.07.05-.13.08-.2.36-.9.71-1.8,1.05-2.71,11.93,1.87,23.69,4.43,35.23,7.66Z"/>
    <path class="uuid-6b633d97-dc79-4fbb-8282-bb62c34c3a00" d="M381.51,461.33c2.26,9.36,4.91,18.6,7.94,27.7-.35-1.02-.7-2.04-1.04-3.06-.02-.04-.03-.09-.04-.14-.38-1.12-.74-2.24-1.1-3.36-.38-1.16-.74-2.32-1.1-3.48-.21-.67-.41-1.34-.61-2.01-.25-.79-.49-1.59-.71-2.39-.31-1.01-.61-2.03-.89-3.06-.26-.89-.51-1.77-.75-2.66-.69-2.48-1.34-4.96-1.97-7.46.09-.03.18-.05.27-.08Z"/>
    <path class="uuid-6b633d97-dc79-4fbb-8282-bb62c34c3a00" d="M699.91,527.28c-1.06,14.19-3.45,28.02-7.05,41.34-37.28-35.19-81.73-60.22-130.01-73.67-11.54-3.23-23.3-5.79-35.23-7.66-.95-.16-1.9-.3-2.86-.45-.03,0-.05-.01-.08-.01-1.14-.17-2.28-.33-3.42-.48-3.77-.52-7.55-.97-11.35-1.35-.8-.07-1.6-.15-2.41-.22-.75-.07-1.49-.14-2.25-.2-.67-.06-1.34-.11-2.02-.16-1.47-.12-2.95-.23-4.44-.32-.97-.07-1.94-.12-2.91-.17-.97-.06-1.94-.11-2.91-.15-1.49-.07-2.99-.13-4.48-.17-.79-.03-1.57-.05-2.36-.07-1.15-.03-2.29-.05-3.44-.07-.28,0-.57-.01-.85-.01-1.17,0-2.35-.02-3.53-.02-2.06,0-4.11.02-6.16.06-.12,0-.24,0-.36.01-1.08.02-2.16.04-3.24.08-.85.02-1.69.05-2.54.09-1.02.03-2.04.08-3.06.13-.93.04-1.86.09-2.79.15-.13,0-.27.01-.41.02-.97.05-1.94.11-2.91.18-.98.06-1.96.14-2.94.21-.07.01-.14.01-.21.02-.83.06-1.66.13-2.49.2-.69.06-1.38.12-2.06.18-1.06.1-2.11.2-3.17.31-.72.08-1.44.15-2.16.23-.68.07-1.36.15-2.03.23-.75.09-1.49.17-2.23.26-.95.12-1.9.24-2.85.37-2.35.31-4.7.65-7.04,1.01-.93.14-1.85.29-2.77.44-.54-1.4-1.06-2.79-1.58-4.2-.05-.13-.1-.26-.15-.4-.46-1.28-.92-2.55-1.37-3.84-.49-1.41-.98-2.83-1.45-4.25-.33-.99-.65-1.97-.97-2.96-.62-1.93-1.23-3.86-1.81-5.8-.4-1.32-.79-2.64-1.17-3.97-.03-.1-.05-.2-.08-.3-.82-2.85-1.59-5.71-2.32-8.59,1.03-.18,2.05-.36,3.08-.54,1.04-.18,2.08-.35,3.12-.51.24-.05.49-.09.74-.12,1.05-.17,2.1-.33,3.15-.49.13-.02.26-.04.39-.06.77-.11,1.54-.23,2.32-.33.64-.1,1.28-.18,1.92-.27,2.4-.33,4.81-.63,7.22-.9.9-.11,1.8-.21,2.71-.3.88-.1,1.75-.19,2.62-.28,1.14-.11,2.29-.22,3.44-.33.1,0,.2-.01.29-.02,1.26-.11,2.51-.22,3.77-.31,1.08-.09,2.15-.17,3.23-.24.31-.02.62-.04.93-.06,1.22-.08,2.45-.16,3.68-.22,1.3-.08,2.61-.14,3.92-.2,1.23-.05,2.45-.1,3.68-.14,4.03-.14,8.06-.21,12.11-.21,1.45,0,2.91.01,4.36.03,1.45.01,2.9.04,4.35.08,1.04.02,2.09.05,3.13.09.83.03,1.65.06,2.48.09.2,0,.4,0,.6.03,1.02.04,2.05.08,3.07.13.24.02.47.03.71.04,3.41.18,6.82.41,10.21.69h.03c.98.08,1.96.17,2.94.26,1.6.13,3.2.29,4.8.46.99.1,1.97.21,2.96.32,1.51.17,3.03.35,4.54.54,1.08.13,2.16.27,3.24.42,1.37.18,2.74.38,4.1.58,1.96.29,3.91.59,5.86.91.93.15,1.86.31,2.8.47,2.78.48,5.56,1,8.33,1.55,1.06.21,2.11.42,3.15.65.75.15,1.5.31,2.25.47,1.27.27,2.54.55,3.8.84,1.67.38,3.33.77,4.99,1.17,1.23.3,2.46.6,3.68.91,1.44.37,2.88.75,4.31,1.13,1.43.38,2.86.78,4.29,1.18-.1.42-.2.83-.31,1.24.11-.41.22-.83.32-1.24,46.14,12.98,89.14,35.47,126.61,66.46Z"/>
    <path class="uuid-6b633d97-dc79-4fbb-8282-bb62c34c3a00" d="M426.89,487.62c.92-.15,1.84-.3,2.77-.44-.92.15-1.85.3-2.77.45-.03.01-.07.01-.1.02h0s.07-.02.1-.03Z"/>
    <path class="uuid-6b633d97-dc79-4fbb-8282-bb62c34c3a00" d="M476.47,574.78c-6.27,7.59-12.96,14.93-20.01,21.98-1.21,1.21-2.43,2.41-3.66,3.6-.62-.73-1.23-1.46-1.83-2.19-25.73-30.87-45.66-65.54-59.23-102.65-.46-1.26-.91-2.52-1.35-3.79-.21-.58-.42-1.16-.61-1.74-.12-.32-.23-.64-.33-.96-3.03-9.1-5.68-18.34-7.94-27.7-.09.03-.18.05-.27.08-7-27.72-10.6-56.5-10.6-85.83,0-21.19,1.88-42.09,5.57-62.51,12.66-6.57,26.04-11.95,39.98-16-6.52,25.33-9.88,51.66-9.88,78.51,0,1.49.01,2.97.04,4.45,0,.33,0,.67.01,1,.02,1.14.04,2.28.08,3.41.01.76.04,1.52.07,2.28.03,1.01.07,2.02.11,3.03.03.55.05,1.1.08,1.65.04.84.09,1.68.14,2.52.03.62.07,1.24.11,1.86.1,1.65.22,3.29.35,4.93.12,1.51.24,3.02.39,4.52.14,1.59.3,3.17.47,4.74.03.17.04.34.06.51.12,1.12.25,2.23.39,3.34.08.64.15,1.28.24,1.92.01.1.02.2.04.3.16,1.28.33,2.55.51,3.82.22,1.59.46,3.19.71,4.78,0,.02.01.05.01.07.24,1.5.48,3,.74,4.49.26,1.5.53,2.99.81,4.48.06.38.13.76.21,1.13.57,3.03,1.19,6.04,1.86,9.04.7,3.17,1.45,6.32,2.25,9.46.73,2.88,1.5,5.74,2.32,8.59.03.1.05.2.08.3.38,1.33.77,2.65,1.17,3.97.58,1.94,1.19,3.87,1.81,5.8.32.99.64,1.97.97,2.96.47,1.42.96,2.84,1.45,4.25.45,1.29.91,2.56,1.37,3.84.05.14.1.27.15.4.52,1.41,1.04,2.8,1.58,4.2-.03.01-.07.01-.1.02h0c.34.92.68,1.81,1.03,2.71,11.58,30.33,27.92,58.78,48.65,84.43Z"/>
    <path class="uuid-6b633d97-dc79-4fbb-8282-bb62c34c3a00" d="M391.74,495.52s-.03.01-.05.01c-4.43,1.27-8.84,2.64-13.2,4.11-2.92.98-5.83,2-8.72,3.07-4.33,1.6-8.63,3.29-12.89,5.09-2.83,1.2-5.65,2.43-8.46,3.71-.01,0-.02,0-.03,0-4.19,1.92-8.34,3.93-12.45,6.03-26.07,13.36-50.35,30.47-72.17,51.07-2.24,2.11-4.45,4.26-6.63,6.44-7.96,7.95-15.43,16.26-22.4,24.88-20.17,24.93-36.19,52.51-47.71,81.89-.37.89-.71,1.79-1.05,2.69.95.16,1.91.31,2.86.45,15.24,2.25,30.75,3.4,46.44,3.4,17.08,0,33.95-1.36,50.49-4.03,9.81,10.85,20.51,20.86,32.01,29.93-26.69,6.45-54.34,9.77-82.5,9.77-19.42,0-38.59-1.58-57.37-4.68-.94-.14-1.87-.3-2.8-.46-11.78-2.04-23.39-4.68-34.82-7.9,2.9-11.57,6.39-22.96,10.46-34.13.32-.89.65-1.78.97-2.67,15.83-42.42,39.99-81.59,71.65-115.5,2.79-3,5.64-5.95,8.55-8.86,7.96-7.96,16.23-15.49,24.8-22.57,36.91-30.52,79.17-52.79,124.52-65.86.63,2.5,1.28,4.98,1.97,7.46.24.89.49,1.78.75,2.66.28,1.03.58,2.05.89,3.06.22.8.46,1.6.71,2.39.19.67.4,1.34.61,2.01.36,1.16.72,2.32,1.1,3.48.35,1.13.72,2.25,1.1,3.36.01.05.02.1.04.14.34,1.02.68,2.05,1.04,3.06.1.32.21.64.33.96.19.58.4,1.16.61,1.74.43,1.27.89,2.53,1.35,3.79Z"/>
  </g>
  <g id="uuid-74d40691-a575-4414-b2b8-ee31309f10b2" data-name="Moon">
    <path class="uuid-04fe5d90-0ab3-4a97-bd63-07d9627b9a14" d="M632.56,409.63c.56-10.05,5.37-18.85,12.59-24.76-2.31-.63-4.71-1.03-7.2-1.17-19.01-1.06-35.28,13.49-36.34,32.5-1.06,19.01,13.49,35.28,32.5,36.34,8.96.5,17.31-2.47,23.75-7.74-15.35-4.19-26.23-18.64-25.31-35.16Z"/>
    <path class="uuid-04fe5d90-0ab3-4a97-bd63-07d9627b9a14" d="M325.4,409.63c-.56-10.05-5.37-18.85-12.59-24.76,2.31-.63,4.71-1.03,7.2-1.17,19.01-1.06,35.28,13.49,36.34,32.5,1.06,19.01-13.49,35.28-32.5,36.34-8.96.5-17.31-2.47-23.75-7.74,15.35-4.19,26.23-18.64,25.31-35.16Z"/>
  </g>
  <g id="uuid-dd7898bb-2a3a-4249-bca3-4b523c7b29d5" data-name="Star">
    <g>
      <circle class="uuid-04fe5d90-0ab3-4a97-bd63-07d9627b9a14" cx="476.15" cy="370.29" r="44.18"/>
      <polygon class="uuid-04fe5d90-0ab3-4a97-bd63-07d9627b9a14" points="476.47 329.82 485.63 358 515.25 358 491.29 375.41 500.44 403.58 476.47 386.17 452.51 403.58 461.66 375.41 437.7 358 467.32 358 476.47 329.82"/>
      <polygon class="uuid-04fe5d90-0ab3-4a97-bd63-07d9627b9a14" points="491.15 375.46 476.47 386.13 461.8 375.46 467.4 358.21 485.54 358.21 491.15 375.46"/>
    </g>
  </g>
  <g id="uuid-6b134f57-db40-4c77-bf91-f895f1379639" data-name="Circule">
    <circle class="uuid-04fe5d90-0ab3-4a97-bd63-07d9627b9a14" cx="476.15" cy="687.13" r="36.32"/>
  </g>
  <g id="uuid-781140ab-ca55-4d4a-b787-a8b56752a1a5" data-name="Right sq">
    <g>
      <path class="uuid-c184d6a4-eb7e-4c63-bf3e-9295201a6219" d="M582.68,543.23v.16c0,.4.16.78.44,1.06l40.11,40.11c.59.59.59,1.54,0,2.13l-19.9,19.9.08.08-20.3,20.3c-.28.28-.44.66-.44,1.06h0c0,1.34,1.62,2.01,2.57,1.06l42.4-42.4c.59-.59.59-1.54,0-2.13l-42.4-42.4c-.95-.95-2.57-.28-2.57,1.06Z"/>
      <path class="uuid-c184d6a4-eb7e-4c63-bf3e-9295201a6219" d="M628.26,627.16l-40.12-40.12c-.59-.59-.59-1.54,0-2.12l19.84-19.84-.08-.08,20.36-20.36c.28-.28.44-.66.44-1.06h0c0-1.34-1.62-2.01-2.56-1.06l-42.4,42.4c-.59.59-.59,1.54,0,2.12l42.4,42.4c.95.95,2.56.28,2.56-1.06v-.16c0-.4-.16-.78-.44-1.06Z"/>
      <line class="uuid-98cf17b8-7caa-4a6a-92b8-3dfaab990bd7" x1="605.69" y1="538.82" x2="605.69" y2="630.88"/>
    </g>
  </g>
  <g id="uuid-150be233-c911-4cfd-8587-8cb5e7500f28" data-name="eyes">
    <path class="uuid-c184d6a4-eb7e-4c63-bf3e-9295201a6219" d="M355.53,602.95c-11.56,0-22.33-5.73-28.8-15.32l-.54-.79.54-.79c6.48-9.59,17.25-15.32,28.8-15.32s22.33,5.73,28.8,15.32l.54.79-.54.79c-6.48,9.59-17.25,15.32-28.8,15.32ZM329.63,586.84c6,8.33,15.61,13.28,25.9,13.28s19.9-4.95,25.9-13.28c-6-8.33-15.61-13.28-25.9-13.28s-19.9,4.94-25.9,13.28Z"/>
    <path class="uuid-c184d6a4-eb7e-4c63-bf3e-9295201a6219" d="M355.53,597.75c-7.11,0-12.9-5.79-12.9-12.9s5.79-12.9,12.9-12.9,12.9,5.79,12.9,12.9-5.79,12.9-12.9,12.9ZM355.53,574.79c-5.55,0-10.07,4.52-10.07,10.06s4.52,10.07,10.07,10.07,10.07-4.52,10.07-10.07-4.52-10.06-10.07-10.06Z"/>
    <path class="uuid-c184d6a4-eb7e-4c63-bf3e-9295201a6219" d="M355.53,591.58c-3.71,0-6.72-3.02-6.72-6.72s3.02-6.72,6.72-6.72,6.72,3.02,6.72,6.72-3.02,6.72-6.72,6.72ZM355.53,580.96c-2.14,0-3.89,1.74-3.89,3.89s1.75,3.89,3.89,3.89,3.89-1.75,3.89-3.89-1.75-3.89-3.89-3.89Z"/>
    <path class="uuid-c184d6a4-eb7e-4c63-bf3e-9295201a6219" d="M355.53,618.29c-.78,0-1.42-.63-1.42-1.42v-15.34c0-.78.63-1.42,1.42-1.42s1.42.63,1.42,1.42v15.34c0,.78-.63,1.42-1.42,1.42Z"/>
    <path class="uuid-c184d6a4-eb7e-4c63-bf3e-9295201a6219" d="M355.53,563.02c-.78,0-1.42-.63-1.42-1.42v-15.34c0-.78.63-1.42,1.42-1.42s1.42.63,1.42,1.42v15.34c0,.78-.63,1.42-1.42,1.42Z"/>
    <path class="uuid-c184d6a4-eb7e-4c63-bf3e-9295201a6219" d="M347.49,564.4c-.61,0-1.17-.4-1.36-1.01l-4.81-16.22c-.22-.75.21-1.54.96-1.76.75-.22,1.54.21,1.76.96l4.81,16.22c.22.75-.21,1.54-.96,1.76-.13.04-.27.06-.4.06Z"/>
    <path class="uuid-c184d6a4-eb7e-4c63-bf3e-9295201a6219" d="M339.53,567.08c-.46,0-.92-.23-1.19-.64l-9.48-14.5c-.43-.65-.24-1.53.41-1.96.65-.43,1.53-.25,1.96.41l9.48,14.5c.43.65.24,1.53-.41,1.96-.24.16-.51.23-.77.23Z"/>
    <path class="uuid-c184d6a4-eb7e-4c63-bf3e-9295201a6219" d="M330.36,570.58c-.36,0-.73-.14-1-.42l-10.85-10.85c-.55-.55-.55-1.45,0-2s1.45-.55,2,0l10.85,10.85c.55.55.55,1.45,0,2-.28.28-.64.42-1,.42Z"/>
    <path class="uuid-c184d6a4-eb7e-4c63-bf3e-9295201a6219" d="M324.07,576.73c-.29,0-.58-.09-.83-.27l-12.42-9c-.63-.46-.78-1.35-.32-1.98.46-.63,1.35-.77,1.98-.32l12.42,9c.63.46.78,1.35.32,1.98-.28.38-.71.59-1.15.59Z"/>
    <path class="uuid-c184d6a4-eb7e-4c63-bf3e-9295201a6219" d="M365.39,564.4c-.1,0-.2-.01-.3-.03-.77-.17-1.25-.92-1.08-1.69l3.25-14.99c.17-.76.92-1.25,1.68-1.08.77.17,1.25.92,1.08,1.69l-3.25,14.99c-.14.66-.73,1.12-1.38,1.12Z"/>
    <path class="uuid-c184d6a4-eb7e-4c63-bf3e-9295201a6219" d="M373.83,568.17c-.23,0-.46-.05-.67-.17-.69-.37-.95-1.23-.58-1.92l7.87-14.65c.37-.69,1.23-.95,1.92-.58.69.37.95,1.23.58,1.92l-7.87,14.65c-.26.48-.75.75-1.25.75Z"/>
    <path class="uuid-c184d6a4-eb7e-4c63-bf3e-9295201a6219" d="M382.43,572.81c-.32,0-.63-.1-.9-.32-.61-.5-.7-1.39-.2-1.99l10.19-12.44c.5-.61,1.39-.7,1.99-.2.61.5.7,1.39.2,1.99l-10.19,12.44c-.28.34-.69.52-1.1.52Z"/>
    <path class="uuid-c184d6a4-eb7e-4c63-bf3e-9295201a6219" d="M388.34,578.4c-.43,0-.85-.19-1.13-.56-.47-.63-.35-1.51.28-1.98l12.8-9.64c.62-.47,1.51-.35,1.98.28.47.63.35,1.51-.28,1.98l-12.8,9.64c-.25.19-.55.29-.85.29Z"/>
    <path class="uuid-c184d6a4-eb7e-4c63-bf3e-9295201a6219" d="M372.79,615.78c-.58,0-1.12-.35-1.33-.92l-5.36-14.38c-.27-.73.1-1.55.83-1.82.74-.27,1.55.1,1.82.83l5.36,14.38c.27.73-.1,1.55-.83,1.82-.16.06-.33.09-.5.09Z"/>
    <path class="uuid-c184d6a4-eb7e-4c63-bf3e-9295201a6219" d="M337.81,615.82c-.16,0-.32-.03-.48-.08-.74-.26-1.12-1.08-.86-1.81l5.17-14.45c.26-.74,1.07-1.12,1.81-.86.74.26,1.12,1.08.86,1.81l-5.17,14.45c-.21.58-.75.94-1.33.94Z"/>
    <path class="uuid-c184d6a4-eb7e-4c63-bf3e-9295201a6219" d="M389.93,606.53c-.39,0-.77-.16-1.05-.47l-10.26-11.41c-.52-.58-.48-1.48.11-2s1.48-.48,2,.11l10.26,11.41c.52.58.48,1.48-.11,2-.27.24-.61.36-.95.36Z"/>
    <path class="uuid-c184d6a4-eb7e-4c63-bf3e-9295201a6219" d="M322,607.64c-.29,0-.57-.09-.82-.26-.64-.46-.78-1.34-.33-1.98l9.35-13.07c.46-.64,1.34-.78,1.98-.33.64.46.78,1.34.33,1.98l-9.35,13.07c-.28.39-.71.59-1.15.59Z"/>
    <path class="uuid-c184d6a4-eb7e-4c63-bf3e-9295201a6219" d="M389.93,582.4c-.42,0-.83-.18-1.11-.54-8.88-11.24-20.88-17.42-33.81-17.42-.14,0-.28,0-.42,0-12.42.13-23.88,5.95-31.46,15.96-.47.62-1.36.75-1.99.27-.62-.47-.75-1.36-.27-1.99,8.11-10.72,20.39-16.94,33.69-17.08.15,0,.3,0,.46,0,13.81,0,26.59,6.56,36.03,18.5.49.61.38,1.51-.23,1.99-.26.21-.57.31-.88.31Z"/>
  </g>
  <g id="uuid-50e9eca1-0ca7-4ebc-a68b-60b33da6301c" data-name="TXT">
    <text class="uuid-e7b59d86-a8dc-44c0-96a9-e1ba21414d12" transform="translate(246.31 487.56) rotate(-81.98) scale(1.01 1)"><tspan x="0" y="0">H</tspan></text>
    <text class="uuid-e7b59d86-a8dc-44c0-96a9-e1ba21414d12" transform="translate(249.41 466.92) rotate(-77.3) scale(1.01 1)"><tspan x="0" y="0">A</tspan></text>
    <text class="uuid-e7b59d86-a8dc-44c0-96a9-e1ba21414d12" transform="translate(252.94 451.6) rotate(-73.18) scale(1.01 1)"><tspan x="0" y="0">B</tspan></text>
    <text class="uuid-e7b59d86-a8dc-44c0-96a9-e1ba21414d12" transform="translate(257.77 435.97) rotate(-69.16) scale(1.01 1)"><tspan x="0" y="0">L</tspan></text>
    <text class="uuid-e7b59d86-a8dc-44c0-96a9-e1ba21414d12" transform="translate(263.17 421.98) rotate(-65.22) scale(1.01 1)"><tspan x="0" y="0">A</tspan></text>
    <text class="uuid-e7b59d86-a8dc-44c0-96a9-e1ba21414d12" transform="translate(269.93 407.72) rotate(-62.27) scale(1.01 1)"><tspan x="0" y="0"> </tspan></text>
    <text class="uuid-e7b59d86-a8dc-44c0-96a9-e1ba21414d12" transform="translate(273.44 401.13) rotate(-60.37) scale(1.01 1)"><tspan x="0" y="0"> </tspan></text>
    <text class="uuid-e7b59d86-a8dc-44c0-96a9-e1ba21414d12" transform="translate(277.02 394.7) rotate(-57.29) scale(1.01 1)"><tspan x="0" y="0">C</tspan></text>
    <text class="uuid-e7b59d86-a8dc-44c0-96a9-e1ba21414d12" transform="translate(286.15 380.57) rotate(-52.76) scale(1.01 1)"><tspan x="0" y="0">O</tspan></text>
    <text class="uuid-e7b59d86-a8dc-44c0-96a9-e1ba21414d12" transform="translate(297.81 365.4) rotate(-48.03) scale(1.01 1)"><tspan x="0" y="0">N</tspan></text>
    <text class="uuid-e7b59d86-a8dc-44c0-96a9-e1ba21414d12" transform="translate(310.41 351.73) rotate(-44.79) scale(1.01 1)"><tspan x="0" y="0"> </tspan></text>
    <text class="uuid-e7b59d86-a8dc-44c0-96a9-e1ba21414d12" transform="translate(315.13 346.96) rotate(-42.05) scale(1.01 1)"><tspan x="0" y="0">A</tspan></text>
    <text class="uuid-e7b59d86-a8dc-44c0-96a9-e1ba21414d12" transform="translate(326.74 336.41) rotate(-37.26) scale(1.01 1)"><tspan x="0" y="0">M</tspan></text>
    <text class="uuid-e7b59d86-a8dc-44c0-96a9-e1ba21414d12" transform="translate(344.94 322.79) rotate(-32.04) scale(1.01 1)"><tspan x="0" y="0">O</tspan></text>
    <text class="uuid-e7b59d86-a8dc-44c0-96a9-e1ba21414d12" transform="translate(361.23 312.76) rotate(-27.6) scale(1.01 1)"><tspan x="0" y="0">R</tspan></text>
  </g>
  <g id="uuid-a9afd905-a94e-4037-9da4-d084cff95eab" data-name="Layer 13">
    <text class="uuid-42eec513-cc98-48b1-8e0f-3611f7bea0db" transform="translate(178.64 685.89) rotate(-68.83)"><tspan x="0" y="0">H</tspan></text>
    <text class="uuid-42eec513-cc98-48b1-8e0f-3611f7bea0db" transform="translate(186.16 666.66) rotate(-64.92)"><tspan x="0" y="0">O</tspan></text>
    <text class="uuid-42eec513-cc98-48b1-8e0f-3611f7bea0db" transform="translate(194.99 647.97) rotate(-61.1)"><tspan x="0" y="0">N</tspan></text>
    <text class="uuid-42eec513-cc98-48b1-8e0f-3611f7bea0db" transform="translate(204.75 630.47) rotate(-57.52)"><tspan x="0" y="0">R</tspan></text>
    <text class="uuid-42eec513-cc98-48b1-8e0f-3611f7bea0db" transform="translate(214.58 615.13) rotate(-54.06)"><tspan x="0" y="0">A</tspan></text>
    <text class="uuid-42eec513-cc98-48b1-8e0f-3611f7bea0db" transform="translate(226.02 599.64) rotate(-51.6)"><tspan x="0" y="0"> </tspan></text>
    <text class="uuid-42eec513-cc98-48b1-8e0f-3611f7bea0db" transform="translate(230.5 593.87) rotate(-49.26)"><tspan x="0" y="0">T</tspan></text>
    <text class="uuid-42eec513-cc98-48b1-8e0f-3611f7bea0db" transform="translate(242.38 580.11) rotate(-45.68)"><tspan x="0" y="0">U</tspan></text>
    <text class="uuid-42eec513-cc98-48b1-8e0f-3611f7bea0db" transform="translate(257.26 565.16) rotate(-43.1)"><tspan x="0" y="0"> </tspan></text>
    <text class="uuid-42eec513-cc98-48b1-8e0f-3611f7bea0db" transform="translate(262.59 560.12) rotate(-40.98)"><tspan x="0" y="0">P</tspan></text>
    <text class="uuid-42eec513-cc98-48b1-8e0f-3611f7bea0db" transform="translate(272.75 551.22) rotate(-38.24)"><tspan x="0" y="0">A</tspan></text>
    <text class="uuid-42eec513-cc98-48b1-8e0f-3611f7bea0db" transform="translate(287.91 539.41) rotate(-35.07)"><tspan x="0" y="0">L</tspan></text>
    <text class="uuid-42eec513-cc98-48b1-8e0f-3611f7bea0db" transform="translate(300.98 530.25) rotate(-31.9)"><tspan x="0" y="0">A</tspan></text>
    <text class="uuid-42eec513-cc98-48b1-8e0f-3611f7bea0db" transform="translate(317.32 520.18) rotate(-28.65)"><tspan x="0" y="0">B</tspan></text>
    <text class="uuid-42eec513-cc98-48b1-8e0f-3611f7bea0db" transform="translate(332.21 512.09) rotate(-25.49)"><tspan x="0" y="0">R</tspan></text>
    <text class="uuid-42eec513-cc98-48b1-8e0f-3611f7bea0db" transform="translate(348.71 504.27) rotate(-22.13)"><tspan x="0" y="0">A</tspan></text>
    <text class="uuid-42eec513-cc98-48b1-8e0f-3611f7bea0db" transform="translate(366.6 497.17) rotate(-19.75)"><tspan x="0" y="0"> </tspan></text>
    <text class="uuid-42eec513-cc98-48b1-8e0f-3611f7bea0db" transform="translate(373.58 494.69) rotate(-18.43)"><tspan x="0" y="0"> </tspan></text>
    <text class="uuid-42eec513-cc98-48b1-8e0f-3611f7bea0db" transform="translate(380.61 492.38) rotate(-17.1)"><tspan x="0" y="0"> </tspan></text>
    <text class="uuid-42eec513-cc98-48b1-8e0f-3611f7bea0db" transform="translate(387.68 490.23) rotate(-15.78)"><tspan x="0" y="0"> </tspan></text>
    <text class="uuid-42eec513-cc98-48b1-8e0f-3611f7bea0db" transform="translate(394.82 488.24) rotate(-14.46)"><tspan x="0" y="0"> </tspan></text>
    <text class="uuid-42eec513-cc98-48b1-8e0f-3611f7bea0db" transform="translate(401.97 486.42) rotate(-13.14)"><tspan x="0" y="0"> </tspan></text>
    <text class="uuid-42eec513-cc98-48b1-8e0f-3611f7bea0db" transform="translate(409.22 484.75) rotate(-11.82)"><tspan x="0" y="0"> </tspan></text>
    <text class="uuid-42eec513-cc98-48b1-8e0f-3611f7bea0db" transform="translate(416.47 483.26) rotate(-10.51)"><tspan x="0" y="0"> </tspan></text>
    <text class="uuid-42eec513-cc98-48b1-8e0f-3611f7bea0db" transform="translate(423.74 481.94) rotate(-9.2)"><tspan x="0" y="0"> </tspan></text>
    <text class="uuid-42eec513-cc98-48b1-8e0f-3611f7bea0db" transform="translate(431.05 480.78) rotate(-7.89)"><tspan x="0" y="0"> </tspan></text>
    <text class="uuid-42eec513-cc98-48b1-8e0f-3611f7bea0db" transform="translate(438.38 479.79) rotate(-6.58)"><tspan x="0" y="0"> </tspan></text>
    <text class="uuid-42eec513-cc98-48b1-8e0f-3611f7bea0db" transform="translate(445.76 478.96) rotate(-5.28)"><tspan x="0" y="0"> </tspan></text>
    <text class="uuid-42eec513-cc98-48b1-8e0f-3611f7bea0db" transform="translate(453.13 478.3) rotate(-3.98)"><tspan x="0" y="0"> </tspan></text>
    <text class="uuid-42eec513-cc98-48b1-8e0f-3611f7bea0db" transform="translate(460.51 477.81) rotate(-2.69)"><tspan x="0" y="0"> </tspan></text>
    <text class="uuid-42eec513-cc98-48b1-8e0f-3611f7bea0db" transform="translate(467.91 477.49) rotate(-1.4)"><tspan x="0" y="0"> </tspan></text>
    <text class="uuid-42eec513-cc98-48b1-8e0f-3611f7bea0db" transform="translate(475.24 477.23) rotate(.91)"><tspan x="0" y="0">B</tspan></text>
    <text class="uuid-42eec513-cc98-48b1-8e0f-3611f7bea0db" transform="translate(492.25 477.52) rotate(3.67)"><tspan x="0" y="0">E</tspan></text>
    <text class="uuid-42eec513-cc98-48b1-8e0f-3611f7bea0db" transform="translate(509.33 478.63) rotate(6.93)"><tspan x="0" y="0">N</tspan></text>
    <text class="uuid-42eec513-cc98-48b1-8e0f-3611f7bea0db" transform="translate(529.2 481.09) rotate(10.55)"><tspan x="0" y="0">D</tspan></text>
    <text class="uuid-42eec513-cc98-48b1-8e0f-3611f7bea0db" transform="translate(549.79 485.11) rotate(13.35)"><tspan x="0" y="0">I</tspan></text>
    <text class="uuid-42eec513-cc98-48b1-8e0f-3611f7bea0db" transform="translate(560.05 487.5) rotate(15.92)"><tspan x="0" y="0">T</tspan></text>
    <text class="uuid-42eec513-cc98-48b1-8e0f-3611f7bea0db" transform="translate(577.06 492.36) rotate(19.31)"><tspan x="0" y="0">O</tspan></text>
    <text class="uuid-42eec513-cc98-48b1-8e0f-3611f7bea0db" transform="translate(596.61 499.42) rotate(21.83)"><tspan x="0" y="0"> </tspan></text>
    <text class="uuid-42eec513-cc98-48b1-8e0f-3611f7bea0db" transform="translate(603.45 502.11) rotate(23.91)"><tspan x="0" y="0">S</tspan></text>
    <text class="uuid-42eec513-cc98-48b1-8e0f-3611f7bea0db" transform="translate(617.91 508.56) rotate(26.87)"><tspan x="0" y="0">E</tspan></text>
    <text class="uuid-42eec513-cc98-48b1-8e0f-3611f7bea0db" transform="translate(633.18 516.33) rotate(30.13)"><tspan x="0" y="0">A</tspan></text>
    <text class="uuid-42eec513-cc98-48b1-8e0f-3611f7bea0db" transform="translate(649.1 525.66) rotate(33.15)"><tspan x="0" y="0">S</tspan></text>
  </g>
  <g id="uuid-8d25cbd9-f3d9-4a87-abba-3f4156c65bfc" data-name="Layer 14">
    <text class="uuid-e7b59d86-a8dc-44c0-96a9-e1ba21414d12" transform="translate(634.02 344.55) rotate(43.15)"><tspan x="0" y="0">E</tspan></text>
    <text class="uuid-e7b59d86-a8dc-44c0-96a9-e1ba21414d12" transform="translate(645.03 355) rotate(46.74)"><tspan x="0" y="0">S</tspan></text>
    <text class="uuid-e7b59d86-a8dc-44c0-96a9-e1ba21414d12" transform="translate(654.33 364.91) rotate(50.53)"><tspan x="0" y="0">C</tspan></text>
    <text class="uuid-e7b59d86-a8dc-44c0-96a9-e1ba21414d12" transform="translate(664.88 377.81) rotate(54.93)"><tspan x="0" y="0">U</tspan></text>
    <text class="uuid-e7b59d86-a8dc-44c0-96a9-e1ba21414d12" transform="translate(675.39 392.99) rotate(59.34)"><tspan x="0" y="0">C</tspan></text>
    <text class="uuid-e7b59d86-a8dc-44c0-96a9-e1ba21414d12" transform="translate(683.88 407.32) rotate(64.04)"><tspan x="0" y="0">H</tspan></text>
    <text class="uuid-e7b59d86-a8dc-44c0-96a9-e1ba21414d12" transform="translate(692.76 425.99) rotate(68.62)"><tspan x="0" y="0">A</tspan></text>
    <text class="uuid-e7b59d86-a8dc-44c0-96a9-e1ba21414d12" transform="translate(698.31 440.62) rotate(71.53)"><tspan x="0" y="0"> </tspan></text>
    <text class="uuid-e7b59d86-a8dc-44c0-96a9-e1ba21414d12" transform="translate(700.68 447.52) rotate(74.58)"><tspan x="0" y="0">C</tspan></text>
    <text class="uuid-e7b59d86-a8dc-44c0-96a9-e1ba21414d12" transform="translate(705.07 463.6) rotate(79.09)"><tspan x="0" y="0">O</tspan></text>
    <text class="uuid-e7b59d86-a8dc-44c0-96a9-e1ba21414d12" transform="translate(708.55 482.2) rotate(83.77)"><tspan x="0" y="0">N</tspan></text>
    <text class="uuid-e7b59d86-a8dc-44c0-96a9-e1ba21414d12" transform="translate(710.33 500.51) rotate(86.98)"><tspan x="0" y="0"> </tspan></text>
    <text class="uuid-e7b59d86-a8dc-44c0-96a9-e1ba21414d12" transform="translate(710.67 507.18) rotate(89.07)"><tspan x="0" y="0">A</tspan></text>
    <text class="uuid-e7b59d86-a8dc-44c0-96a9-e1ba21414d12" transform="translate(710.89 522.68) rotate(94.37)"><tspan x="0" y="0">M</tspan></text>
    <text class="uuid-e7b59d86-a8dc-44c0-96a9-e1ba21414d12" transform="translate(709 545.08) rotate(99.57)"><tspan x="0" y="0">O</tspan></text>
    <text class="uuid-e7b59d86-a8dc-44c0-96a9-e1ba21414d12" transform="translate(705.72 563.73) rotate(104)"><tspan x="0" y="0">R</tspan></text>
  </g>
  <g id="uuid-39b2dc3b-837d-4a5d-8948-432e2ead85a2" data-name="Layer 15">
    <text class="uuid-e7b59d86-a8dc-44c0-96a9-e1ba21414d12" transform="translate(482.18 168.34) rotate(51.2)"><tspan x="0" y="0">C</tspan></text>
    <text class="uuid-e7b59d86-a8dc-44c0-96a9-e1ba21414d12" transform="translate(492.66 181.43) rotate(54.36)"><tspan x="0" y="0">O</tspan></text>
    <text class="uuid-e7b59d86-a8dc-44c0-96a9-e1ba21414d12" transform="translate(503.68 196.92) rotate(57.66)"><tspan x="0" y="0">N</tspan></text>
    <text class="uuid-e7b59d86-a8dc-44c0-96a9-e1ba21414d12" transform="translate(513.47 212.5) rotate(60.98)"><tspan x="0" y="0">O</tspan></text>
    <text class="uuid-e7b59d86-a8dc-44c0-96a9-e1ba21414d12" transform="translate(522.62 229.18) rotate(64.16)"><tspan x="0" y="0">C</tspan></text>
    <text class="uuid-e7b59d86-a8dc-44c0-96a9-e1ba21414d12" transform="translate(529.87 244.33) rotate(67.02)"><tspan x="0" y="0">E</tspan></text>
    <text class="uuid-e7b59d86-a8dc-44c0-96a9-e1ba21414d12" transform="translate(535.72 258.42) rotate(69.04)"><tspan x="0" y="0"> </tspan></text>
    <text class="uuid-e7b59d86-a8dc-44c0-96a9-e1ba21414d12" transform="translate(538.06 264.35) rotate(71.04)"><tspan x="0" y="0">T</tspan></text>
    <text class="uuid-e7b59d86-a8dc-44c0-96a9-e1ba21414d12" transform="translate(543.55 280.47) rotate(74.22)"><tspan x="0" y="0">U</tspan></text>
    <text class="uuid-e7b59d86-a8dc-44c0-96a9-e1ba21414d12" transform="translate(548.46 298.43) rotate(76.54)"><tspan x="0" y="0"> </tspan></text>
    <text class="uuid-e7b59d86-a8dc-44c0-96a9-e1ba21414d12" transform="translate(550.2 305.57) rotate(78.55)"><tspan x="0" y="0">P</tspan></text>
    <text class="uuid-e7b59d86-a8dc-44c0-96a9-e1ba21414d12" transform="translate(553.18 320.35) rotate(81.58)"><tspan x="0" y="0">O</tspan></text>
    <text class="uuid-e7b59d86-a8dc-44c0-96a9-e1ba21414d12" transform="translate(555.9 339.18) rotate(84.93)"><tspan x="0" y="0">D</tspan></text>
    <text class="uuid-e7b59d86-a8dc-44c0-96a9-e1ba21414d12" transform="translate(557.46 357.95) rotate(87.92)"><tspan x="0" y="0">E</tspan></text>
    <text class="uuid-e7b59d86-a8dc-44c0-96a9-e1ba21414d12" transform="translate(558 373.17) rotate(90.93)"><tspan x="0" y="0">R</tspan></text>
  </g>
  <g id="uuid-aaae1076-04a2-4edd-a6d8-ad6939b24ea7" data-name="Layer 16">
    <text class="uuid-e7b59d86-a8dc-44c0-96a9-e1ba21414d12" transform="translate(382.62 678.98) rotate(-27.07)"><tspan x="0" y="0">V</tspan></text>
    <text class="uuid-e7b59d86-a8dc-44c0-96a9-e1ba21414d12" transform="translate(398.6 670.68) rotate(-30.01)"><tspan x="0" y="0">E</tspan></text>
    <text class="uuid-e7b59d86-a8dc-44c0-96a9-e1ba21414d12" transform="translate(412.96 662.3) rotate(-32.91)"><tspan x="0" y="0">R</tspan></text>
    <text class="uuid-e7b59d86-a8dc-44c0-96a9-e1ba21414d12" transform="translate(427.61 652.63) rotate(-35.11)"><tspan x="0" y="0"> </tspan></text>
    <text class="uuid-e7b59d86-a8dc-44c0-96a9-e1ba21414d12" transform="translate(434.62 647.73) rotate(-37.34)"><tspan x="0" y="0">C</tspan></text>
    <text class="uuid-e7b59d86-a8dc-44c0-96a9-e1ba21414d12" transform="translate(449.13 636.57) rotate(-40.61)"><tspan x="0" y="0">O</tspan></text>
    <text class="uuid-e7b59d86-a8dc-44c0-96a9-e1ba21414d12" transform="translate(464.69 623.06) rotate(-44.02)"><tspan x="0" y="0">N</tspan></text>
    <text class="uuid-e7b59d86-a8dc-44c0-96a9-e1ba21414d12" transform="translate(478.73 609.23) rotate(-46.39)"><tspan x="0" y="0"> </tspan></text>
    <text class="uuid-e7b59d86-a8dc-44c0-96a9-e1ba21414d12" transform="translate(484.14 603.59) rotate(-48.41)"><tspan x="0" y="0">A</tspan></text>
    <text class="uuid-e7b59d86-a8dc-44c0-96a9-e1ba21414d12" transform="translate(495.58 590.69) rotate(-51.89)"><tspan x="0" y="0">M</tspan></text>
    <text class="uuid-e7b59d86-a8dc-44c0-96a9-e1ba21414d12" transform="translate(510.42 571.45) rotate(-55.68)"><tspan x="0" y="0">O</tspan></text>
    <text class="uuid-e7b59d86-a8dc-44c0-96a9-e1ba21414d12" transform="translate(521.88 554.4) rotate(-58.91)"><tspan x="0" y="0">R</tspan></text>
  </g>
  <g id="uuid-003fdeac-1465-4244-9c43-2a3c45e47a83" data-name="Layer 17">
    <text class="uuid-e7b59d86-a8dc-44c0-96a9-e1ba21414d12" transform="translate(273.58 646.19) rotate(54.84)"><tspan x="0" y="0">E</tspan></text>
    <text class="uuid-e7b59d86-a8dc-44c0-96a9-e1ba21414d12" transform="translate(283.57 660.09) rotate(51.05)"><tspan x="0" y="0">S</tspan></text>
    <text class="uuid-e7b59d86-a8dc-44c0-96a9-e1ba21414d12" transform="translate(293.45 672.17) rotate(47.04)"><tspan x="0" y="0">T</tspan></text>
    <text class="uuid-e7b59d86-a8dc-44c0-96a9-e1ba21414d12" transform="translate(305.67 685.1) rotate(43.09)"><tspan x="0" y="0">A</tspan></text>
    <text class="uuid-e7b59d86-a8dc-44c0-96a9-e1ba21414d12" transform="translate(318.64 697.04) rotate(38.93)"><tspan x="0" y="0">R</tspan></text>
    <text class="uuid-e7b59d86-a8dc-44c0-96a9-e1ba21414d12" transform="translate(332.81 708.19) rotate(35.79)"><tspan x="0" y="0"> </tspan></text>
    <text class="uuid-e7b59d86-a8dc-44c0-96a9-e1ba21414d12" transform="translate(340.11 713.45) rotate(32.78)"><tspan x="0" y="0">E</tspan></text>
    <text class="uuid-e7b59d86-a8dc-44c0-96a9-e1ba21414d12" transform="translate(354.72 722.73) rotate(28.38)"><tspan x="0" y="0">N</tspan></text>
    <text class="uuid-e7b59d86-a8dc-44c0-96a9-e1ba21414d12" transform="translate(372.62 732.08) rotate(24.96)"><tspan x="0" y="0"> </tspan></text>
    <text class="uuid-e7b59d86-a8dc-44c0-96a9-e1ba21414d12" transform="translate(380.79 735.88) rotate(21.93)"><tspan x="0" y="0">E</tspan></text>
    <text class="uuid-e7b59d86-a8dc-44c0-96a9-e1ba21414d12" transform="translate(396.89 742.26) rotate(17.42)"><tspan x="0" y="0">Q</tspan></text>
    <text class="uuid-e7b59d86-a8dc-44c0-96a9-e1ba21414d12" transform="translate(417.19 748.41) rotate(12.51)"><tspan x="0" y="0">U</tspan></text>
    <text class="uuid-e7b59d86-a8dc-44c0-96a9-e1ba21414d12" transform="translate(437.26 752.58) rotate(8.67)"><tspan x="0" y="0">I</tspan></text>
    <text class="uuid-e7b59d86-a8dc-44c0-96a9-e1ba21414d12" transform="translate(449.37 754.37) rotate(5.3)"><tspan x="0" y="0">L</tspan></text>
    <text class="uuid-e7b59d86-a8dc-44c0-96a9-e1ba21414d12" transform="translate(465.97 755.73) rotate(1.97)"><tspan x="0" y="0">I</tspan></text>
    <text class="uuid-e7b59d86-a8dc-44c0-96a9-e1ba21414d12" transform="translate(478.26 756.11) rotate(-1.51)"><tspan x="0" y="0">B</tspan></text>
    <text class="uuid-e7b59d86-a8dc-44c0-96a9-e1ba21414d12" transform="translate(496.52 755.48) rotate(-5.73)"><tspan x="0" y="0">R</tspan></text>
    <text class="uuid-e7b59d86-a8dc-44c0-96a9-e1ba21414d12" transform="translate(514.52 753.45) rotate(-9.26)"><tspan x="0" y="0">I</tspan></text>
    <text class="uuid-e7b59d86-a8dc-44c0-96a9-e1ba21414d12" transform="translate(526.74 751.46) rotate(-13.16)"><tspan x="0" y="0">O</tspan></text>
  </g>
  <g id="uuid-f26ec495-9493-4153-81ea-ea79a7c5d90b" data-name="Layer 18">
    <text class="uuid-c9e98a3c-d7cd-425b-8263-87bf319cddfb" transform="translate(-595.55 396.08) rotate(85.77)"><tspan x="0" y="0">S</tspan></text>
    <text class="uuid-c9e98a3c-d7cd-425b-8263-87bf319cddfb" transform="translate(-594.42 410.54) rotate(83.21)"><tspan x="0" y="0">E</tspan></text>
    <text class="uuid-c9e98a3c-d7cd-425b-8263-87bf319cddfb" transform="translate(-592.42 426.34) rotate(81.19)"><tspan x="0" y="0"> </tspan></text>
    <text class="uuid-c9e98a3c-d7cd-425b-8263-87bf319cddfb" transform="translate(-591.33 433.56) rotate(79.25)"><tspan x="0" y="0">A</tspan></text>
    <text class="uuid-c9e98a3c-d7cd-425b-8263-87bf319cddfb" transform="translate(-588.22 449.99) rotate(75.82)"><tspan x="0" y="0">M</tspan></text>
    <text class="uuid-c9e98a3c-d7cd-425b-8263-87bf319cddfb" transform="translate(-582.22 472.9) rotate(72.4)"><tspan x="0" y="0">A</tspan></text>
    <text class="uuid-c9e98a3c-d7cd-425b-8263-87bf319cddfb" transform="translate(-577.13 488.69) rotate(69.53)"><tspan x="0" y="0">B</tspan></text>
    <text class="uuid-c9e98a3c-d7cd-425b-8263-87bf319cddfb" transform="translate(-571.04 504.72) rotate(66.73)"><tspan x="0" y="0">L</tspan></text>
    <text class="uuid-c9e98a3c-d7cd-425b-8263-87bf319cddfb" transform="translate(-564.74 519.2) rotate(64.03)"><tspan x="0" y="0">E</tspan></text>
    <text class="uuid-c9e98a3c-d7cd-425b-8263-87bf319cddfb" transform="translate(-557.66 533.47) rotate(62.01)"><tspan x="0" y="0"> </tspan></text>
    <text class="uuid-c9e98a3c-d7cd-425b-8263-87bf319cddfb" transform="translate(-553.95 540.37) rotate(60.69)"><tspan x="0" y="0"> </tspan></text>
    <text class="uuid-c9e98a3c-d7cd-425b-8263-87bf319cddfb" transform="translate(-550.09 547.18) rotate(59.36)"><tspan x="0" y="0"> </tspan></text>
    <text class="uuid-c9e98a3c-d7cd-425b-8263-87bf319cddfb" transform="translate(-546.08 553.89) rotate(58.05)"><tspan x="0" y="0"> </tspan></text>
    <text class="uuid-c9e98a3c-d7cd-425b-8263-87bf319cddfb" transform="translate(-541.9 560.52) rotate(56.73)"><tspan x="0" y="0"> </tspan></text>
    <text class="uuid-c9e98a3c-d7cd-425b-8263-87bf319cddfb" transform="translate(-537.58 567.05) rotate(55.41)"><tspan x="0" y="0"> </tspan></text>
    <text class="uuid-c9e98a3c-d7cd-425b-8263-87bf319cddfb" transform="translate(-533.11 573.47) rotate(54.09)"><tspan x="0" y="0"> </tspan></text>
    <text class="uuid-c9e98a3c-d7cd-425b-8263-87bf319cddfb" transform="translate(-528.5 579.79) rotate(52.78)"><tspan x="0" y="0"> </tspan></text>
    <text class="uuid-c9e98a3c-d7cd-425b-8263-87bf319cddfb" transform="translate(-523.74 585.99) rotate(51.47)"><tspan x="0" y="0"> </tspan></text>
    <text class="uuid-c9e98a3c-d7cd-425b-8263-87bf319cddfb" transform="translate(-518.83 592.11) rotate(50.15)"><tspan x="0" y="0"> </tspan></text>
    <text class="uuid-c9e98a3c-d7cd-425b-8263-87bf319cddfb" transform="translate(-513.81 598.08) rotate(48.84)"><tspan x="0" y="0"> </tspan></text>
    <text class="uuid-c9e98a3c-d7cd-425b-8263-87bf319cddfb" transform="translate(-508.63 603.96) rotate(47.53)"><tspan x="0" y="0"> </tspan></text>
    <text class="uuid-c9e98a3c-d7cd-425b-8263-87bf319cddfb" transform="translate(-503.31 609.72) rotate(46.22)"><tspan x="0" y="0"> </tspan></text>
    <text class="uuid-c9e98a3c-d7cd-425b-8263-87bf319cddfb" transform="translate(-497.87 615.35) rotate(44.9)"><tspan x="0" y="0"> </tspan></text>
    <text class="uuid-c9e98a3c-d7cd-425b-8263-87bf319cddfb" transform="translate(-492.32 620.84) rotate(43.6)"><tspan x="0" y="0"> </tspan></text>
    <text class="uuid-c9e98a3c-d7cd-425b-8263-87bf319cddfb" transform="translate(-486.62 626.21) rotate(42.28)"><tspan x="0" y="0"> </tspan></text>
    <text class="uuid-c9e98a3c-d7cd-425b-8263-87bf319cddfb" transform="translate(-480.8 631.46) rotate(40.97)"><tspan x="0" y="0"> </tspan></text>
    <text class="uuid-c9e98a3c-d7cd-425b-8263-87bf319cddfb" transform="translate(-474.88 636.56) rotate(39.66)"><tspan x="0" y="0"> </tspan></text>
    <text class="uuid-c9e98a3c-d7cd-425b-8263-87bf319cddfb" transform="translate(-468.74 641.67) rotate(37.65)"><tspan x="0" y="0">E</tspan></text>
    <text class="uuid-c9e98a3c-d7cd-425b-8263-87bf319cddfb" transform="translate(-455.91 651.49) rotate(34.82)"><tspan x="0" y="0">X</tspan></text>
    <text class="uuid-c9e98a3c-d7cd-425b-8263-87bf319cddfb" transform="translate(-441.4 661.46) rotate(31.99)"><tspan x="0" y="0">P</tspan></text>
    <text class="uuid-c9e98a3c-d7cd-425b-8263-87bf319cddfb" transform="translate(-428.74 669.32) rotate(29.43)"><tspan x="0" y="0">A</tspan></text>
    <text class="uuid-c9e98a3c-d7cd-425b-8263-87bf319cddfb" transform="translate(-414.24 677.44) rotate(26.39)"><tspan x="0" y="0">N</tspan></text>
    <text class="uuid-c9e98a3c-d7cd-425b-8263-87bf319cddfb" transform="translate(-396.79 686.01) rotate(23.06)"><tspan x="0" y="0">D</tspan></text>
    <text class="uuid-c9e98a3c-d7cd-425b-8263-87bf319cddfb" transform="translate(-378.51 693.64) rotate(20.01)"><tspan x="0" y="0">E</tspan></text>
    <text class="uuid-c9e98a3c-d7cd-425b-8263-87bf319cddfb" transform="translate(-363.48 698.98) rotate(17.97)"><tspan x="0" y="0"> </tspan></text>
    <text class="uuid-c9e98a3c-d7cd-425b-8263-87bf319cddfb" transform="translate(-356.84 701.18) rotate(15.96)"><tspan x="0" y="0">T</tspan></text>
    <text class="uuid-c9e98a3c-d7cd-425b-8263-87bf319cddfb" transform="translate(-339.47 706.08) rotate(12.76)"><tspan x="0" y="0">U</tspan></text>
    <text class="uuid-c9e98a3c-d7cd-425b-8263-87bf319cddfb" transform="translate(-320.54 710.18) rotate(10.44)"><tspan x="0" y="0"> </tspan></text>
    <text class="uuid-c9e98a3c-d7cd-425b-8263-87bf319cddfb" transform="translate(-312.54 711.76) rotate(7.76)"><tspan x="0" y="0">M</tspan></text>
    <text class="uuid-c9e98a3c-d7cd-425b-8263-87bf319cddfb" transform="translate(-289.05 714.76) rotate(4.41)"><tspan x="0" y="0">E</tspan></text>
    <text class="uuid-c9e98a3c-d7cd-425b-8263-87bf319cddfb" transform="translate(-272.93 715.96) rotate(1.45)"><tspan x="0" y="0">N</tspan></text>
    <text class="uuid-c9e98a3c-d7cd-425b-8263-87bf319cddfb" transform="translate(-253.52 716.34) rotate(-1.66)"><tspan x="0" y="0">T</tspan></text>
    <text class="uuid-c9e98a3c-d7cd-425b-8263-87bf319cddfb" transform="translate(-235.57 715.72) rotate(-4.5)"><tspan x="0" y="0">E</tspan></text>
    <text class="uuid-e7b59d86-a8dc-44c0-96a9-e1ba21414d12" transform="translate(383.41 396.08) rotate(85.77)"><tspan x="0" y="0">S</tspan></text>
    <text class="uuid-e7b59d86-a8dc-44c0-96a9-e1ba21414d12" transform="translate(384.53 410.54) rotate(83.21)"><tspan x="0" y="0">E</tspan></text>
    <text class="uuid-e7b59d86-a8dc-44c0-96a9-e1ba21414d12" transform="translate(386.54 426.34) rotate(81.19)"><tspan x="0" y="0"> </tspan></text>
    <text class="uuid-e7b59d86-a8dc-44c0-96a9-e1ba21414d12" transform="translate(387.63 433.56) rotate(79.25)"><tspan x="0" y="0">A</tspan></text>
    <text class="uuid-e7b59d86-a8dc-44c0-96a9-e1ba21414d12" transform="translate(390.74 449.99) rotate(75.82)"><tspan x="0" y="0">M</tspan></text>
    <text class="uuid-e7b59d86-a8dc-44c0-96a9-e1ba21414d12" transform="translate(396.74 472.9) rotate(72.4)"><tspan x="0" y="0">A</tspan></text>
    <text class="uuid-e7b59d86-a8dc-44c0-96a9-e1ba21414d12" transform="translate(401.83 488.69) rotate(69.53)"><tspan x="0" y="0">B</tspan></text>
    <text class="uuid-e7b59d86-a8dc-44c0-96a9-e1ba21414d12" transform="translate(407.92 504.72) rotate(66.73)"><tspan x="0" y="0">L</tspan></text>
    <text class="uuid-e7b59d86-a8dc-44c0-96a9-e1ba21414d12" transform="translate(414.21 519.2) rotate(64.03)"><tspan x="0" y="0">E</tspan></text>
    <text class="uuid-e7b59d86-a8dc-44c0-96a9-e1ba21414d12" transform="translate(421.3 533.47) rotate(62.01)"><tspan x="0" y="0"> </tspan></text>
    <text class="uuid-e7b59d86-a8dc-44c0-96a9-e1ba21414d12" transform="translate(425.01 540.37) rotate(60.69)"><tspan x="0" y="0"> </tspan></text>
    <text class="uuid-e7b59d86-a8dc-44c0-96a9-e1ba21414d12" transform="translate(428.87 547.18) rotate(59.36)"><tspan x="0" y="0"> </tspan></text>
    <text class="uuid-e7b59d86-a8dc-44c0-96a9-e1ba21414d12" transform="translate(432.88 553.89) rotate(58.05)"><tspan x="0" y="0"> </tspan></text>
    <text class="uuid-e7b59d86-a8dc-44c0-96a9-e1ba21414d12" transform="translate(437.06 560.52) rotate(56.73)"><tspan x="0" y="0"> </tspan></text>
    <text class="uuid-e7b59d86-a8dc-44c0-96a9-e1ba21414d12" transform="translate(441.38 567.05) rotate(55.41)"><tspan x="0" y="0"> </tspan></text>
    <text class="uuid-e7b59d86-a8dc-44c0-96a9-e1ba21414d12" transform="translate(445.85 573.47) rotate(54.09)"><tspan x="0" y="0"> </tspan></text>
    <text class="uuid-e7b59d86-a8dc-44c0-96a9-e1ba21414d12" transform="translate(450.46 579.79) rotate(52.78)"><tspan x="0" y="0"> </tspan></text>
    <text class="uuid-e7b59d86-a8dc-44c0-96a9-e1ba21414d12" transform="translate(455.21 585.99) rotate(51.47)"><tspan x="0" y="0"> </tspan></text>
    <text class="uuid-e7b59d86-a8dc-44c0-96a9-e1ba21414d12" transform="translate(460.12 592.11) rotate(50.15)"><tspan x="0" y="0"> </tspan></text>
    <text class="uuid-e7b59d86-a8dc-44c0-96a9-e1ba21414d12" transform="translate(465.15 598.08) rotate(48.84)"><tspan x="0" y="0"> </tspan></text>
    <text class="uuid-e7b59d86-a8dc-44c0-96a9-e1ba21414d12" transform="translate(470.33 603.96) rotate(47.53)"><tspan x="0" y="0"> </tspan></text>
    <text class="uuid-e7b59d86-a8dc-44c0-96a9-e1ba21414d12" transform="translate(475.65 609.72) rotate(46.22)"><tspan x="0" y="0"> </tspan></text>
    <text class="uuid-e7b59d86-a8dc-44c0-96a9-e1ba21414d12" transform="translate(481.09 615.35) rotate(44.9)"><tspan x="0" y="0"> </tspan></text>
    <text class="uuid-e7b59d86-a8dc-44c0-96a9-e1ba21414d12" transform="translate(486.64 620.84) rotate(43.6)"><tspan x="0" y="0"> </tspan></text>
    <text class="uuid-e7b59d86-a8dc-44c0-96a9-e1ba21414d12" transform="translate(492.34 626.21) rotate(42.28)"><tspan x="0" y="0"> </tspan></text>
    <text class="uuid-e7b59d86-a8dc-44c0-96a9-e1ba21414d12" transform="translate(498.16 631.46) rotate(40.97)"><tspan x="0" y="0"> </tspan></text>
    <text class="uuid-e7b59d86-a8dc-44c0-96a9-e1ba21414d12" transform="translate(504.07 636.56) rotate(39.66)"><tspan x="0" y="0"> </tspan></text>
    <text class="uuid-e7b59d86-a8dc-44c0-96a9-e1ba21414d12" transform="translate(510.22 641.67) rotate(37.65)"><tspan x="0" y="0">E</tspan></text>
    <text class="uuid-e7b59d86-a8dc-44c0-96a9-e1ba21414d12" transform="translate(523.04 651.49) rotate(34.82)"><tspan x="0" y="0">X</tspan></text>
    <text class="uuid-e7b59d86-a8dc-44c0-96a9-e1ba21414d12" transform="translate(537.55 661.46) rotate(31.99)"><tspan x="0" y="0">P</tspan></text>
    <text class="uuid-e7b59d86-a8dc-44c0-96a9-e1ba21414d12" transform="translate(550.22 669.32) rotate(29.43)"><tspan x="0" y="0">A</tspan></text>
    <text class="uuid-e7b59d86-a8dc-44c0-96a9-e1ba21414d12" transform="translate(564.71 677.44) rotate(26.39)"><tspan x="0" y="0">N</tspan></text>
    <text class="uuid-e7b59d86-a8dc-44c0-96a9-e1ba21414d12" transform="translate(582.17 686.01) rotate(23.06)"><tspan x="0" y="0">D</tspan></text>
    <text class="uuid-e7b59d86-a8dc-44c0-96a9-e1ba21414d12" transform="translate(600.45 693.64) rotate(20.01)"><tspan x="0" y="0">E</tspan></text>
    <text class="uuid-e7b59d86-a8dc-44c0-96a9-e1ba21414d12" transform="translate(615.48 698.98) rotate(17.97)"><tspan x="0" y="0"> </tspan></text>
    <text class="uuid-e7b59d86-a8dc-44c0-96a9-e1ba21414d12" transform="translate(622.11 701.18) rotate(15.96)"><tspan x="0" y="0">T</tspan></text>
    <text class="uuid-e7b59d86-a8dc-44c0-96a9-e1ba21414d12" transform="translate(639.48 706.08) rotate(12.76)"><tspan x="0" y="0">U</tspan></text>
    <text class="uuid-e7b59d86-a8dc-44c0-96a9-e1ba21414d12" transform="translate(658.41 710.18) rotate(10.44)"><tspan x="0" y="0"> </tspan></text>
    <text class="uuid-e7b59d86-a8dc-44c0-96a9-e1ba21414d12" transform="translate(666.42 711.76) rotate(7.76)"><tspan x="0" y="0">M</tspan></text>
    <text class="uuid-e7b59d86-a8dc-44c0-96a9-e1ba21414d12" transform="translate(689.9 714.76) rotate(4.41)"><tspan x="0" y="0">E</tspan></text>
    <text class="uuid-e7b59d86-a8dc-44c0-96a9-e1ba21414d12" transform="translate(706.03 715.96) rotate(1.45)"><tspan x="0" y="0">N</tspan></text>
    <text class="uuid-e7b59d86-a8dc-44c0-96a9-e1ba21414d12" transform="translate(725.44 716.34) rotate(-1.66)"><tspan x="0" y="0">T</tspan></text>
    <text class="uuid-e7b59d86-a8dc-44c0-96a9-e1ba21414d12" transform="translate(743.39 715.72) rotate(-4.5)"><tspan x="0" y="0">E</tspan></text>
  </g>
  <g id="uuid-43e8cda1-8972-40a3-b174-aaaf6d23f6b8" data-name="STARS">
    <g>
      <polygon class="uuid-c184d6a4-eb7e-4c63-bf3e-9295201a6219" points="198.63 696.25 194.65 700.66 198.94 704.78 193.12 703.54 191.7 709.31 189.87 703.66 184.16 705.3 188.14 700.89 183.85 696.77 189.67 698.01 191.09 692.24 192.92 697.9 198.63 696.25"/>
      <polygon class="uuid-c184d6a4-eb7e-4c63-bf3e-9295201a6219" points="270.23 704.99 263.61 707.38 265.78 714.07 260.41 709.53 255.7 714.75 256.94 707.83 250.07 706.37 256.68 703.98 254.51 697.29 259.88 701.83 264.59 696.61 263.35 703.53 270.23 704.99"/>
      <polygon class="uuid-c184d6a4-eb7e-4c63-bf3e-9295201a6219" points="229.78 697.38 226.74 704.25 233.51 707.52 226.04 708.32 226.6 715.81 222.17 709.74 215.96 713.98 219 707.1 212.23 703.84 219.7 703.04 219.14 695.55 223.57 701.62 229.78 697.38"/>
    </g>
    <g>
      <polygon class="uuid-c184d6a4-eb7e-4c63-bf3e-9295201a6219" points="460.18 176.7 458.2 171.1 452.54 172.89 456.4 168.38 452.01 164.37 457.85 165.46 459.13 159.66 461.11 165.26 466.77 163.46 462.91 167.98 467.3 171.98 461.45 170.89 460.18 176.7"/>
      <polygon class="uuid-c184d6a4-eb7e-4c63-bf3e-9295201a6219" points="418.33 235.44 419.39 228.49 412.47 227.2 419.02 224.65 416.68 218.02 422.17 222.41 426.74 217.07 425.68 224.02 432.59 225.3 426.04 227.86 428.38 234.49 422.89 230.09 418.33 235.44"/>
      <polygon class="uuid-c184d6a4-eb7e-4c63-bf3e-9295201a6219" points="444.32 203.53 439.73 197.58 433.63 201.97 436.49 195.02 429.64 191.94 437.08 190.94 436.33 183.47 440.92 189.42 447.01 185.02 444.15 191.97 451.01 195.06 443.56 196.05 444.32 203.53"/>
    </g>
    <g>
      <polygon class="uuid-c184d6a4-eb7e-4c63-bf3e-9295201a6219" points="773.96 660.81 779.8 661.87 781.06 656.06 783.06 661.65 788.71 659.83 784.87 664.37 789.28 668.35 783.43 667.29 782.18 673.1 780.18 667.51 774.52 669.33 778.36 664.79 773.96 660.81"/>
      <polygon class="uuid-c184d6a4-eb7e-4c63-bf3e-9295201a6219" points="743.75 595.31 749.25 599.68 753.8 594.32 752.77 601.28 759.69 602.54 753.15 605.12 755.52 611.74 750.01 607.37 745.46 612.73 746.5 605.77 739.58 604.51 746.12 601.93 743.75 595.31"/>
      <polygon class="uuid-c184d6a4-eb7e-4c63-bf3e-9295201a6219" points="758.54 633.71 765.99 632.69 765.2 625.21 769.81 631.15 775.89 626.73 773.06 633.69 779.93 636.74 772.48 637.77 773.27 645.24 768.66 639.31 762.58 643.73 765.41 636.77 758.54 633.71"/>
    </g>
  </g>
</svg>