<?xml version="1.0" encoding="UTF-8"?>
<svg xmlns="http://www.w3.org/2000/svg" viewBox="0 0 1000 1000">
  <defs>
    <style>
      .uuid-23f5bf20-93d2-4aaa-a1ba-51c0f6321030, .uuid-3265dc1f-8f38-4df5-8258-7e2c2c6aa1c7, .uuid-c99fc10e-4811-49f3-8f60-b7f247dc9562, .uuid-52bc1cf9-dab2-4c04-92e1-8df780e4d5e6 {
        fill: #231f20;
      }

      .uuid-23f5bf20-93d2-4aaa-a1ba-51c0f6321030, .uuid-3265dc1f-8f38-4df5-8258-7e2c2c6aa1c7, .uuid-d3d9ac57-66fb-4b0c-a813-57281664e451 {
        font-family: SeriaPro, 'Seria Pro';
      }

      .uuid-23f5bf20-93d2-4aaa-a1ba-51c0f6321030, .uuid-d3d9ac57-66fb-4b0c-a813-57281664e451, .uuid-52bc1cf9-dab2-4c04-92e1-8df780e4d5e6 {
        font-size: 25px;
      }

      .uuid-3265dc1f-8f38-4df5-8258-7e2c2c6aa1c7 {
        font-size: 35.12px;
      }

      .uuid-d3d9ac57-66fb-4b0c-a813-57281664e451 {
        fill: #fff;
      }

      .uuid-52bc1cf9-dab2-4c04-92e1-8df780e4d5e6 {
        font-family: Athelas-Regular, Athelas;
      }

      .uuid-dc4917df-5932-4072-bace-9a133efbafa1 {
        stroke-linecap: round;
      }

      .uuid-dc4917df-5932-4072-bace-9a133efbafa1, .uuid-2ea39e26-9ca3-45b5-8b19-50d83d7fdfa4, .uuid-9245a452-ded3-4111-8fe5-a92099b12305 {
        fill: none;
        stroke: #000;
        stroke-miterlimit: 10;
      }

      .uuid-dc4917df-5932-4072-bace-9a133efbafa1, .uuid-9245a452-ded3-4111-8fe5-a92099b12305 {
        stroke-width: 2.83px;
      }

      .uuid-2ea39e26-9ca3-45b5-8b19-50d83d7fdfa4 {
        stroke-width: 2.83px;
      }
    </style>
  </defs>
  <g id="uuid-2e671719-8a89-43bf-8829-66084ab3688d" data-name="Up">
    <path class="uuid-2ea39e26-9ca3-45b5-8b19-50d83d7fdfa4" d="M676.65,716.8s-.07.05-.11.08c-43.62,33.26-98.1,53.02-157.18,53.02s-114.01-19.92-157.72-53.44c-.94-.72-1.88-1.45-2.8-2.19h-.01c-11.5-9.07-22.2-19.08-32.01-29.93-.75-.83-1.49-1.67-2.23-2.51-20.97-23.82-37.64-51.52-48.8-81.89,6.97-8.62,14.44-16.93,22.4-24.88,2.18-2.18,4.39-4.33,6.63-6.44,10.86,40.16,32.69,75.82,62.08,103.54.79.75,1.59,1.49,2.39,2.23,10.53,9.65,21.99,18.3,34.25,25.8h.01c.97.6,1.95,1.19,2.94,1.77,33.08,19.54,71.66,30.76,112.87,30.76s79.08-11.01,111.95-30.23c.11-.07.23-.13.34-.2,14.62,5.85,29.65,10.7,45,14.51Z"/>
    <path class="uuid-2ea39e26-9ca3-45b5-8b19-50d83d7fdfa4" d="M577.7,297.31c-1.05-.3-2.1-.59-3.16-.86-18.05-4.74-37-7.26-56.54-7.26s-40.18,2.75-58.95,7.91c-1.06.28-2.12.58-3.17.89-13.94,4.05-27.32,9.43-39.98,16-1.06.54-2.12,1.1-3.17,1.67-69.63,37.52-116.95,111.11-116.95,195.75,0,5.65.21,11.24.63,16.78-8.57,7.08-16.84,14.61-24.8,22.57-2.91,2.91-5.76,5.86-8.55,8.86-2.93-15.62-4.47-31.74-4.47-48.21,0-110.13,68.64-204.24,165.48-241.87,1.1-.44,2.2-.86,3.31-1.26,13.62-5.09,27.78-9.06,42.38-11.8,1.11-.21,2.22-.41,3.33-.6,14.59-2.55,29.59-3.88,44.91-3.88,14.47,0,28.66,1.19,42.49,3.46,1.11.19,2.21.38,3.32.57,5.59,13.39,10.23,27.18,13.89,41.28Z"/>
    <path class="uuid-2ea39e26-9ca3-45b5-8b19-50d83d7fdfa4" d="M778.77,510.49c0,16.47-1.54,32.58-4.47,48.2-2.67,14.19-6.49,27.97-11.37,41.25-11.2,30.49-27.96,58.3-49.06,82.19-.75.85-1.5,1.69-2.26,2.52-.76.83-1.52,1.66-2.28,2.48-14.52-2.4-28.78-5.82-42.7-10.21.75-.67,1.5-1.34,2.24-2.01.81-.74,1.61-1.48,2.41-2.24,29.67-27.8,51.7-63.64,62.63-104.05,3.6-13.32,5.99-27.15,7.05-41.34.42-5.54.63-11.14.63-16.79,0-85.64-48.45-159.97-119.43-197.07-1.05-.54-3.76-1.73-4.82-2.26-2.84-15.43-6.59-30.62-11.46-45.42,1.1.39,3.75,1.48,4.85,1.89h0c98.19,36.96,168.04,131.76,168.04,242.86Z"/>
  </g>
  <g id="uuid-500e8511-f04b-4204-a5a5-53098ed34b6e" data-name="Right">
    <path class="uuid-9245a452-ded3-4111-8fe5-a92099b12305" d="M857.99,713.51c-11.4,3.28-23,5.98-34.76,8.07-.93.17-1.86.34-2.79.49-19.38,3.31-39.19,4.99-59.25,4.99-28.88,0-57.22-3.49-84.54-10.26-15.35-3.81-30.38-8.66-45-14.51-42.22-16.89-81.06-42.15-114.45-74.92.35-.32.7-.66,1.04-.99.75-.72,1.51-1.46,2.25-2.19.75-.73,1.5-1.47,2.24-2.21,1.07-1.07,2.13-2.14,3.18-3.22.14-.14.28-.29.42-.43,1.01-1.04,2.01-2.08,3-3.13l.04-.04c.91-.96,1.81-1.92,2.71-2.89,1.34-1.45,2.68-2.92,4-4.39.83-.93,1.66-1.86,2.48-2.8.58-.66,1.15-1.32,1.72-1.98.48-.55.95-1.1,1.42-1.65,35.71,35.2,78.4,60.78,124.93,75.47,13.92,4.39,28.18,7.81,42.7,10.21,16.98,2.82,34.31,4.26,51.86,4.26,16.45,0,32.71-1.26,48.66-3.74.96-.15,1.91-.3,2.86-.46-.34-.9-.67-1.8-1.02-2.7-11.6-30.38-27.98-58.88-48.76-84.55,4.88-13.28,8.7-27.06,11.37-41.25,32.27,34.56,56.75,74.59,72.54,117.94.33.89.65,1.78.97,2.67,3.98,11.19,7.38,22.61,10.18,34.21Z"/>
    <path class="uuid-9245a452-ded3-4111-8fe5-a92099b12305" d="M518.97,124.79c8.44,8.34,16.47,17.13,24.04,26.37.6.73,1.21,1.46,1.79,2.19,12.37,15.28,23.52,31.74,33.34,49.23,14.13,25.19,24.95,51.61,32.41,78.75,4.19,15.25,7.31,30.73,9.36,46.35,5.92,45.09,6.68,87.98-5.57,133.13-11.81-3.36-31.01-7.22-37.61-8.37,13.23-48.37,13.89-95.09,3.94-142.86-2.98-14.29-6.97-28.4-11.98-42.24-5.85-16.19-13.07-32.01-21.65-47.31-8.05-14.35-17.1-27.91-27.07-40.61-.6-.76-1.2-1.52-1.8-2.27-.62.74-1.24,1.47-1.86,2.21-20.82,24.98-32.98,45.51-45.2,76.19-13.97,2.24-28.7,7.19-42.38,11.8,14.36-45.05,33.44-79.82,63.53-114.8.61-.72,1.23-1.44,1.85-2.15,7.81-8.95,16.11-17.5,24.86-25.61Z"/>
  </g>
  <g id="uuid-5ea6fba8-1623-4bcb-bf13-a0cae81ef1f2" data-name="Left">
    <path class="uuid-9245a452-ded3-4111-8fe5-a92099b12305" d="M603.9,494.95c-.32.89-.65,1.78-.98,2.67-.46,1.24-.93,2.47-1.41,3.7-.45,1.17-.91,2.33-1.37,3.49-.46,1.16-.93,2.31-1.41,3.47-.47,1.15-.95,2.3-1.44,3.45-.49,1.16-.99,2.32-1.5,3.48-.96,2.19-1.94,4.38-2.95,6.55-.04.11-.09.22-.14.32-.52,1.1-1.03,2.21-1.56,3.3-.48,1.02-.98,2.04-1.48,3.06-.11.25-.23.49-.36.74-1.02,2.1-2.08,4.19-3.16,6.27-.4.76-.79,1.53-1.2,2.29-.82,1.56-1.65,3.11-2.5,4.66-.4.73-.8,1.46-1.21,2.19-.43.79-.88,1.59-1.33,2.38-.93,1.64-1.87,3.27-2.83,4.9-.75,1.28-1.51,2.56-2.28,3.83-.08.12-.15.24-.24.37-.62,1.04-1.26,2.07-1.91,3.11-.98,1.58-1.98,3.16-3,4.74-.65,1.01-1.31,2.02-1.97,3.02-1.63,2.48-3.3,4.94-5,7.38-.6.85-1.2,1.7-1.8,2.55-.12.17-.24.35-.37.52-.67.94-1.35,1.89-2.04,2.82-.74,1.02-1.49,2.04-2.24,3.05-1.51,2.03-3.05,4.04-4.6,6.03-.78,1-1.56,1.99-2.35,2.98-.79.99-1.59,1.98-2.39,2.96-.8.99-1.61,1.96-2.42,2.94-.6.73-1.21,1.46-1.83,2.19-.31.37-.62.73-.93,1.09-.47.55-.94,1.1-1.42,1.65-.57.66-1.14,1.32-1.72,1.98-.82.94-1.65,1.87-2.48,2.8-1.32,1.47-2.66,2.94-4,4.39-.9.97-1.8,1.93-2.71,2.89l-.04.04c-.99,1.05-1.99,2.09-3,3.13-.14.14-.28.29-.42.43-1.05,1.08-2.11,2.15-3.18,3.22-.74.74-1.49,1.48-2.24,2.21-.74.73-1.5,1.47-2.25,2.19-.34.33-.69.67-1.04.99-33.29,31.9-71.83,56.44-113.65,72.82h-.01c-12.26-7.5-23.72-16.15-34.25-25.8,45.94-14.22,88.18-39.04,123.73-73.24.28-.26.56-.52.83-.79,1.23-1.19,2.45-2.39,3.66-3.6,7.05-7.05,13.74-14.39,20.01-21.98.25-.29.48-.57.72-.86.62-.74,1.22-1.49,1.82-2.24,1.41-1.73,2.78-3.47,4.14-5.23.68-.88,1.36-1.76,2.02-2.65.67-.88,1.34-1.77,1.99-2.66.67-.89,1.32-1.78,1.96-2.68.46-.61.9-1.24,1.35-1.87.01-.03.03-.05.05-.08.78-1.08,1.54-2.17,2.29-3.26.87-1.25,1.73-2.5,2.57-3.77.73-1.07,1.45-2.15,2.15-3.24.63-.95,1.24-1.91,1.85-2.86.06-.08.11-.17.16-.25.7-1.09,1.39-2.19,2.06-3.28.59-.95,1.17-1.9,1.75-2.85.1-.17.2-.33.3-.5,1.31-2.17,2.59-4.36,3.83-6.56.41-.7.81-1.41,1.2-2.12.42-.74.83-1.49,1.24-2.24.56-1.01,1.11-2.03,1.65-3.04.09-.17.18-.33.27-.5,1.03-1.94,2.03-3.89,3.02-5.84.15-.31.31-.62.46-.93.28-.57.56-1.13.84-1.69.28-.57.56-1.14.83-1.7.42-.87.84-1.73,1.25-2.61.01,0,.01-.03.02-.04.79-1.68,1.57-3.36,2.34-5.05.35-.79.71-1.58,1.05-2.37.11-.25.22-.49.33-.73.4-.92.8-1.85,1.19-2.77.19-.43.37-.86.55-1.29.07-.17.14-.34.21-.52.39-.93.78-1.86,1.16-2.8.24-.58.47-1.17.71-1.75.23-.58.46-1.17.69-1.75.03-.07.05-.13.08-.2.36-.9.71-1.8,1.05-2.71,11.93,1.87,23.69,4.43,35.23,7.66Z"/>
    <path class="uuid-9245a452-ded3-4111-8fe5-a92099b12305" d="M551.62,589.29c1.55-1.99,3.09-4,4.6-6.03-1.5,2.03-3.03,4.04-4.6,6.03Z"/>
    <path class="uuid-9245a452-ded3-4111-8fe5-a92099b12305" d="M595.79,515.21c-.95,2.19-1.93,4.38-2.95,6.55,1.01-2.17,1.99-4.36,2.95-6.55Z"/>
    <path class="uuid-9245a452-ded3-4111-8fe5-a92099b12305" d="M422.56,461.33c2.26,9.36,4.91,18.6,7.94,27.7-.35-1.02-.7-2.04-1.04-3.06-.02-.04-.03-.09-.04-.14-.38-1.12-.74-2.24-1.1-3.36-.38-1.16-.74-2.32-1.1-3.48-.21-.67-.41-1.34-.61-2.01-.25-.79-.49-1.59-.71-2.39-.31-1.01-.61-2.03-.89-3.06-.26-.89-.51-1.77-.75-2.66-.69-2.48-1.34-4.96-1.97-7.46.09-.03.18-.05.27-.08Z"/>
    <path class="uuid-9245a452-ded3-4111-8fe5-a92099b12305" d="M740.96,527.28c-1.06,14.19-3.45,28.02-7.05,41.34-37.28-35.19-81.73-60.22-130.01-73.67-11.54-3.23-23.3-5.79-35.23-7.66-.95-.16-1.9-.3-2.86-.45-.03,0-.05-.01-.08-.01-1.14-.17-2.28-.33-3.42-.48-3.77-.52-7.55-.97-11.35-1.35-.8-.07-1.6-.15-2.41-.22-.75-.07-1.49-.14-2.25-.2-.67-.06-1.34-.11-2.02-.16-1.47-.12-2.95-.23-4.44-.32-.97-.07-1.94-.12-2.91-.17-.97-.06-1.94-.11-2.91-.15-1.49-.07-2.99-.13-4.48-.17-.79-.03-1.57-.05-2.36-.07-1.15-.03-2.29-.05-3.44-.07-.28,0-.57-.01-.85-.01-1.17,0-2.35-.02-3.53-.02-2.06,0-4.11.02-6.16.06-.12,0-.24,0-.36.01-1.08.02-2.16.04-3.24.08-.85.02-1.69.05-2.54.09-1.02.03-2.04.08-3.06.13-.93.04-1.86.09-2.79.15-.13,0-.27.01-.41.02-.97.05-1.94.11-2.91.18-.98.06-1.96.14-2.94.21-.07.01-.14.01-.21.02-.83.06-1.66.13-2.49.2-.69.06-1.38.12-2.06.18-1.06.1-2.11.2-3.17.31-.72.08-1.44.15-2.16.23-.68.07-1.36.15-2.03.23-.75.09-1.49.17-2.23.26-.95.12-1.9.24-2.85.37-2.35.31-4.7.65-7.04,1.01-.93.14-1.85.29-2.77.44-.54-1.4-1.06-2.79-1.58-4.2-.05-.13-.1-.26-.15-.4-.46-1.28-.92-2.55-1.37-3.84-.49-1.41-.98-2.83-1.45-4.25-.33-.99-.65-1.97-.97-2.96-.62-1.93-1.23-3.86-1.81-5.8-.4-1.32-.79-2.64-1.17-3.97-.03-.1-.05-.2-.08-.3-.82-2.85-1.59-5.71-2.32-8.59,1.03-.18,2.05-.36,3.08-.54,1.04-.18,2.08-.35,3.12-.51.24-.05.49-.09.74-.12,1.05-.17,2.1-.33,3.15-.49.13-.02.26-.04.39-.06.77-.11,1.54-.23,2.32-.33.64-.1,1.28-.18,1.92-.27,2.4-.33,4.81-.63,7.22-.9.9-.11,1.8-.21,2.71-.3.88-.1,1.75-.19,2.62-.28,1.14-.11,2.29-.22,3.44-.33.1,0,.2-.01.29-.02,1.26-.11,2.51-.22,3.77-.31,1.08-.09,2.15-.17,3.23-.24.31-.02.62-.04.93-.06,1.22-.08,2.45-.16,3.68-.22,1.3-.08,2.61-.14,3.92-.2,1.23-.05,2.45-.1,3.68-.14,4.03-.14,8.06-.21,12.11-.21,1.45,0,2.91.01,4.36.03,1.45.01,2.9.04,4.35.08,1.04.02,2.09.05,3.13.09.83.03,1.65.06,2.48.09.2,0,.4,0,.6.03,1.02.04,2.05.08,3.07.13.24.02.47.03.71.04,3.41.18,6.82.41,10.21.69h.03c.98.08,1.96.17,2.94.26,1.6.13,3.2.29,4.8.46.99.1,1.97.21,2.96.32,1.51.17,3.03.35,4.54.54,1.08.13,2.16.27,3.24.42,1.37.18,2.74.38,4.1.58,1.96.29,3.91.59,5.86.91.93.15,1.86.31,2.8.47,2.78.48,5.56,1,8.33,1.55,1.06.21,2.11.42,3.15.65.75.15,1.5.31,2.25.47,1.27.27,2.54.55,3.8.84,1.67.38,3.33.77,4.99,1.17,1.23.3,2.46.6,3.68.91,1.44.37,2.88.75,4.31,1.13,1.43.38,2.86.78,4.29,1.18-.1.42-.2.83-.31,1.24.11-.41.22-.83.32-1.24,46.14,12.98,89.14,35.47,126.61,66.46Z"/>
    <path class="uuid-9245a452-ded3-4111-8fe5-a92099b12305" d="M467.94,487.62c.92-.15,1.84-.3,2.77-.44-.92.15-1.85.3-2.77.45-.03.01-.07.01-.1.02h0s.07-.02.1-.03Z"/>
    <path class="uuid-9245a452-ded3-4111-8fe5-a92099b12305" d="M614.35,460.82c-.1.41-.21.83-.32,1.24.11-.41.21-.82.31-1.24h.01Z"/>
    <path class="uuid-9245a452-ded3-4111-8fe5-a92099b12305" d="M517.52,574.78c-6.27,7.59-12.96,14.93-20.01,21.98-1.21,1.21-2.43,2.41-3.66,3.6-.62-.73-1.23-1.46-1.83-2.19-25.73-30.87-45.66-65.54-59.23-102.65-.46-1.26-.91-2.52-1.35-3.79-.21-.58-.42-1.16-.61-1.74-.12-.32-.23-.64-.33-.96-3.03-9.1-5.68-18.34-7.94-27.7-.09.03-.18.05-.27.08-7-27.72-10.6-56.5-10.6-85.83,0-21.19,1.88-42.09,5.57-62.51,12.66-6.57,26.04-11.95,39.98-16-6.52,25.33-9.88,51.66-9.88,78.51,0,1.49.01,2.97.04,4.45,0,.33,0,.67.01,1,.02,1.14.04,2.28.08,3.41.01.76.04,1.52.07,2.28.03,1.01.07,2.02.11,3.03.03.55.05,1.1.08,1.65.04.84.09,1.68.14,2.52.03.62.07,1.24.11,1.86.1,1.65.22,3.29.35,4.93.12,1.51.24,3.02.39,4.52.14,1.59.3,3.17.47,4.74.03.17.04.34.06.51.12,1.12.25,2.23.39,3.34.08.64.15,1.28.24,1.92.01.1.02.2.04.3.16,1.28.33,2.55.51,3.82.22,1.59.46,3.19.71,4.78,0,.02.01.05.01.07.24,1.5.48,3,.74,4.49.26,1.5.53,2.99.81,4.48.06.38.13.76.21,1.13.57,3.03,1.19,6.04,1.86,9.04.7,3.17,1.45,6.32,2.25,9.46.73,2.88,1.5,5.74,2.32,8.59.03.1.05.2.08.3.38,1.33.77,2.65,1.17,3.97.58,1.94,1.19,3.87,1.81,5.8.32.99.64,1.97.97,2.96.47,1.42.96,2.84,1.45,4.25.45,1.29.91,2.56,1.37,3.84.05.14.1.27.15.4.52,1.41,1.04,2.8,1.58,4.2-.03.01-.07.01-.1.02h0c.34.92.68,1.81,1.03,2.71,11.58,30.33,27.92,58.78,48.65,84.43Z"/>
    <path class="uuid-9245a452-ded3-4111-8fe5-a92099b12305" d="M432.79,495.52s-.03.01-.05.01c-4.43,1.27-8.84,2.64-13.2,4.11-2.92.98-5.83,2-8.72,3.07-4.33,1.6-8.63,3.29-12.89,5.09-2.83,1.2-5.65,2.43-8.46,3.71-.01,0-.02,0-.03,0-4.19,1.92-8.34,3.93-12.45,6.03-26.07,13.36-50.35,30.47-72.17,51.07-2.24,2.11-4.45,4.26-6.63,6.44-7.96,7.95-15.43,16.26-22.4,24.88-20.17,24.93-36.19,52.51-47.71,81.89-.37.89-.71,1.79-1.05,2.69.95.16,1.91.31,2.86.45,15.24,2.25,30.75,3.4,46.44,3.4,17.08,0,33.95-1.36,50.49-4.03,9.81,10.85,20.51,20.86,32.01,29.93-26.69,6.45-54.34,9.77-82.5,9.77-19.42,0-38.59-1.58-57.37-4.68-.94-.14-1.87-.3-2.8-.46-11.78-2.04-23.39-4.68-34.82-7.9,2.9-11.57,6.39-22.96,10.46-34.13.32-.89.65-1.78.97-2.67,15.83-42.42,39.99-81.59,71.65-115.5,2.79-3,5.64-5.95,8.55-8.86,7.96-7.96,16.23-15.49,24.8-22.57,36.91-30.52,79.17-52.79,124.52-65.86.63,2.5,1.28,4.98,1.97,7.46.24.89.49,1.78.75,2.66.28,1.03.58,2.05.89,3.06.22.8.46,1.6.71,2.39.19.67.4,1.34.61,2.01.36,1.16.72,2.32,1.1,3.48.35,1.13.72,2.25,1.1,3.36.01.05.02.1.04.14.34,1.02.68,2.05,1.04,3.06.1.32.21.64.33.96.19.58.4,1.16.61,1.74.43,1.27.89,2.53,1.35,3.79Z"/>
  </g>
  <g id="uuid-74290f37-693d-4850-a97a-a76978155245" data-name="Moon">
    <path class="uuid-2ea39e26-9ca3-45b5-8b19-50d83d7fdfa4" d="M673.6,409.63c.56-10.05,5.37-18.85,12.59-24.76-2.31-.63-4.71-1.03-7.2-1.17-19.01-1.06-35.28,13.49-36.34,32.5-1.06,19.01,13.49,35.28,32.5,36.34,8.96.5,17.31-2.47,23.75-7.74-15.35-4.19-26.23-18.64-25.31-35.16Z"/>
    <path class="uuid-2ea39e26-9ca3-45b5-8b19-50d83d7fdfa4" d="M366.44,409.63c-.56-10.05-5.37-18.85-12.59-24.76,2.31-.63,4.71-1.03,7.2-1.17,19.01-1.06,35.28,13.49,36.34,32.5,1.06,19.01-13.49,35.28-32.5,36.34-8.96.5-17.31-2.47-23.75-7.74,15.35-4.19,26.23-18.64,25.31-35.16Z"/>
  </g>
  <g id="uuid-dd45960b-adce-4a43-9bd5-8a79a8fe266f" data-name="Star">
    <g>
      <circle class="uuid-2ea39e26-9ca3-45b5-8b19-50d83d7fdfa4" cx="517.2" cy="370.29" r="44.18"/>
      <polygon class="uuid-2ea39e26-9ca3-45b5-8b19-50d83d7fdfa4" points="517.52 329.82 526.67 358 556.29 358 532.33 375.41 541.48 403.58 517.52 386.17 493.55 403.58 502.7 375.41 478.74 358 508.36 358 517.52 329.82"/>
      <polygon class="uuid-2ea39e26-9ca3-45b5-8b19-50d83d7fdfa4" points="532.19 375.46 517.52 386.13 502.84 375.46 508.45 358.21 526.59 358.21 532.19 375.46"/>
    </g>
  </g>
  <g id="uuid-bac704fa-487a-447e-8d4f-bab5d6d5fe5b" data-name="Circule">
    <circle class="uuid-2ea39e26-9ca3-45b5-8b19-50d83d7fdfa4" cx="517.2" cy="687.13" r="36.32"/>
  </g>
  <g id="uuid-b4401324-0b55-4c45-be45-ad69e4767b01" data-name="Right sq">
    <g>
      <g>
        <path d="M624.07,547.67v.16c0,.4.16.78.44,1.06l40.11,40.11c.59.59.59,1.54,0,2.13l-19.9,19.9.08.08-20.3,20.3c-.28.28-.44.66-.44,1.06h0c0,1.34,1.62,2.01,2.57,1.06l42.4-42.4c.59-.59.59-1.54,0-2.13l-42.4-42.4c-.95-.95-2.57-.28-2.57,1.06Z"/>
        <path d="M669.65,631.6l-40.12-40.12c-.59-.59-.59-1.54,0-2.12l19.84-19.84-.08-.08,20.36-20.36c.28-.28.44-.66.44-1.06h0c0-1.34-1.62-2.01-2.56-1.06l-42.4,42.4c-.59.59-.59,1.54,0,2.12l42.4,42.4c.95.95,2.56.28,2.56-1.06v-.16c0-.4-.16-.78-.44-1.06Z"/>
      </g>
      <line class="uuid-dc4917df-5932-4072-bace-9a133efbafa1" x1="647.08" y1="543.26" x2="647.08" y2="635.32"/>
    </g>
  </g>
  <g id="uuid-00516f5a-91dd-4fe2-8fc3-cb11001e2626" data-name="eyes">
    <path d="M396.57,602.95c-11.56,0-22.33-5.73-28.8-15.32l-.54-.79.54-.79c6.48-9.59,17.25-15.32,28.8-15.32s22.33,5.73,28.8,15.32l.54.79-.54.79c-6.48,9.59-17.25,15.32-28.8,15.32ZM370.67,586.84c6,8.33,15.61,13.28,25.9,13.28s19.9-4.95,25.9-13.28c-6-8.33-15.61-13.28-25.9-13.28s-19.9,4.94-25.9,13.28Z"/>
    <path d="M396.57,597.75c-7.11,0-12.9-5.79-12.9-12.9s5.79-12.9,12.9-12.9,12.9,5.79,12.9,12.9-5.79,12.9-12.9,12.9ZM396.57,574.79c-5.55,0-10.07,4.52-10.07,10.06s4.52,10.07,10.07,10.07,10.07-4.52,10.07-10.07-4.52-10.06-10.07-10.06Z"/>
    <path d="M396.57,591.58c-3.71,0-6.72-3.02-6.72-6.72s3.02-6.72,6.72-6.72,6.72,3.02,6.72,6.72-3.02,6.72-6.72,6.72ZM396.57,580.96c-2.14,0-3.89,1.74-3.89,3.89s1.75,3.89,3.89,3.89,3.89-1.75,3.89-3.89-1.75-3.89-3.89-3.89Z"/>
    <path d="M396.57,618.29c-.78,0-1.42-.63-1.42-1.42v-15.34c0-.78.63-1.42,1.42-1.42s1.42.63,1.42,1.42v15.34c0,.78-.63,1.42-1.42,1.42Z"/>
    <path d="M396.57,563.02c-.78,0-1.42-.63-1.42-1.42v-15.34c0-.78.63-1.42,1.42-1.42s1.42.63,1.42,1.42v15.34c0,.78-.63,1.42-1.42,1.42Z"/>
    <path d="M388.53,564.4c-.61,0-1.17-.4-1.36-1.01l-4.81-16.22c-.22-.75.21-1.54.96-1.76.75-.22,1.54.21,1.76.96l4.81,16.22c.22.75-.21,1.54-.96,1.76-.13.04-.27.06-.4.06Z"/>
    <path d="M380.57,567.08c-.46,0-.92-.23-1.19-.64l-9.48-14.5c-.43-.65-.24-1.53.41-1.96.65-.43,1.53-.25,1.96.41l9.48,14.5c.43.65.24,1.53-.41,1.96-.24.16-.51.23-.77.23Z"/>
    <path d="M371.4,570.58c-.36,0-.73-.14-1-.42l-10.85-10.85c-.55-.55-.55-1.45,0-2s1.45-.55,2,0l10.85,10.85c.55.55.55,1.45,0,2-.28.28-.64.42-1,.42Z"/>
    <path d="M365.12,576.73c-.29,0-.58-.09-.83-.27l-12.42-9c-.63-.46-.78-1.35-.32-1.98.46-.63,1.35-.77,1.98-.32l12.42,9c.63.46.78,1.35.32,1.98-.28.38-.71.59-1.15.59Z"/>
    <path d="M406.43,564.4c-.1,0-.2-.01-.3-.03-.77-.17-1.25-.92-1.08-1.69l3.25-14.99c.17-.76.92-1.25,1.68-1.08.77.17,1.25.92,1.08,1.69l-3.25,14.99c-.14.66-.73,1.12-1.38,1.12Z"/>
    <path d="M414.87,568.17c-.23,0-.46-.05-.67-.17-.69-.37-.95-1.23-.58-1.92l7.87-14.65c.37-.69,1.23-.95,1.92-.58.69.37.95,1.23.58,1.92l-7.87,14.65c-.26.48-.75.75-1.25.75Z"/>
    <path d="M423.48,572.81c-.32,0-.63-.1-.9-.32-.61-.5-.7-1.39-.2-1.99l10.19-12.44c.5-.61,1.39-.7,1.99-.2.61.5.7,1.39.2,1.99l-10.19,12.44c-.28.34-.69.52-1.1.52Z"/>
    <path d="M429.38,578.4c-.43,0-.85-.19-1.13-.56-.47-.63-.35-1.51.28-1.98l12.8-9.64c.62-.47,1.51-.35,1.98.28.47.63.35,1.51-.28,1.98l-12.8,9.64c-.25.19-.55.29-.85.29Z"/>
    <path d="M413.84,615.78c-.58,0-1.12-.35-1.33-.92l-5.36-14.38c-.27-.73.1-1.55.83-1.82.74-.27,1.55.1,1.82.83l5.36,14.38c.27.73-.1,1.55-.83,1.82-.16.06-.33.09-.5.09Z"/>
    <path d="M378.85,615.82c-.16,0-.32-.03-.48-.08-.74-.26-1.12-1.08-.86-1.81l5.17-14.45c.26-.74,1.07-1.12,1.81-.86.74.26,1.12,1.08.86,1.81l-5.17,14.45c-.21.58-.75.94-1.33.94Z"/>
    <path d="M430.97,606.53c-.39,0-.77-.16-1.05-.47l-10.26-11.41c-.52-.58-.48-1.48.11-2s1.48-.48,2,.11l10.26,11.41c.52.58.48,1.48-.11,2-.27.24-.61.36-.95.36Z"/>
    <path d="M363.04,607.64c-.29,0-.57-.09-.82-.26-.64-.46-.78-1.34-.33-1.98l9.35-13.07c.46-.64,1.34-.78,1.98-.33.64.46.78,1.34.33,1.98l-9.35,13.07c-.28.39-.71.59-1.15.59Z"/>
    <path d="M430.97,582.4c-.42,0-.83-.18-1.11-.54-8.88-11.24-20.88-17.42-33.81-17.42-.14,0-.28,0-.42,0-12.42.13-23.88,5.95-31.46,15.96-.47.62-1.36.75-1.99.27-.62-.47-.75-1.36-.27-1.99,8.11-10.72,20.39-16.94,33.69-17.08.15,0,.3,0,.46,0,13.81,0,26.59,6.56,36.03,18.5.49.61.38,1.51-.23,1.99-.26.21-.57.31-.88.31Z"/>
  </g>
  <g id="uuid-b8cc1b0c-9d7c-4b96-8be3-8a6d9da7ed6a" data-name="TXT">
    <text class="uuid-23f5bf20-93d2-4aaa-a1ba-51c0f6321030" transform="translate(287.35 487.56) rotate(-81.98) scale(1.01 1)"><tspan x="0" y="0">H</tspan></text>
    <text class="uuid-23f5bf20-93d2-4aaa-a1ba-51c0f6321030" transform="translate(290.45 466.92) rotate(-77.3) scale(1.01 1)"><tspan x="0" y="0">A</tspan></text>
    <text class="uuid-23f5bf20-93d2-4aaa-a1ba-51c0f6321030" transform="translate(293.98 451.6) rotate(-73.18) scale(1.01 1)"><tspan x="0" y="0">B</tspan></text>
    <text class="uuid-23f5bf20-93d2-4aaa-a1ba-51c0f6321030" transform="translate(298.81 435.97) rotate(-69.16) scale(1.01 1)"><tspan x="0" y="0">L</tspan></text>
    <text class="uuid-23f5bf20-93d2-4aaa-a1ba-51c0f6321030" transform="translate(304.21 421.98) rotate(-65.22) scale(1.01 1)"><tspan x="0" y="0">A</tspan></text>
    <text class="uuid-23f5bf20-93d2-4aaa-a1ba-51c0f6321030" transform="translate(310.97 407.72) rotate(-62.27) scale(1.01 1)"><tspan x="0" y="0"> </tspan></text>
    <text class="uuid-23f5bf20-93d2-4aaa-a1ba-51c0f6321030" transform="translate(314.48 401.13) rotate(-60.37) scale(1.01 1)"><tspan x="0" y="0"> </tspan></text>
    <text class="uuid-23f5bf20-93d2-4aaa-a1ba-51c0f6321030" transform="translate(318.06 394.7) rotate(-57.29) scale(1.01 1)"><tspan x="0" y="0">C</tspan></text>
    <text class="uuid-23f5bf20-93d2-4aaa-a1ba-51c0f6321030" transform="translate(327.19 380.57) rotate(-52.76) scale(1.01 1)"><tspan x="0" y="0">O</tspan></text>
    <text class="uuid-23f5bf20-93d2-4aaa-a1ba-51c0f6321030" transform="translate(338.85 365.4) rotate(-48.03) scale(1.01 1)"><tspan x="0" y="0">N</tspan></text>
    <text class="uuid-23f5bf20-93d2-4aaa-a1ba-51c0f6321030" transform="translate(351.45 351.73) rotate(-44.79) scale(1.01 1)"><tspan x="0" y="0"> </tspan></text>
    <text class="uuid-23f5bf20-93d2-4aaa-a1ba-51c0f6321030" transform="translate(356.17 346.96) rotate(-42.05) scale(1.01 1)"><tspan x="0" y="0">A</tspan></text>
    <text class="uuid-23f5bf20-93d2-4aaa-a1ba-51c0f6321030" transform="translate(367.78 336.41) rotate(-37.26) scale(1.01 1)"><tspan x="0" y="0">M</tspan></text>
    <text class="uuid-23f5bf20-93d2-4aaa-a1ba-51c0f6321030" transform="translate(385.98 322.79) rotate(-32.04) scale(1.01 1)"><tspan x="0" y="0">O</tspan></text>
    <text class="uuid-23f5bf20-93d2-4aaa-a1ba-51c0f6321030" transform="translate(402.27 312.76) rotate(-27.6) scale(1.01 1)"><tspan x="0" y="0">R</tspan></text>
  </g>
  <g id="uuid-cff6bc92-2a08-4486-b73c-258c88681fdb" data-name="Layer 13">
    <text class="uuid-52bc1cf9-dab2-4c04-92e1-8df780e4d5e6" transform="translate(219.68 685.89) rotate(-68.83)"><tspan x="0" y="0">H</tspan></text>
    <text class="uuid-52bc1cf9-dab2-4c04-92e1-8df780e4d5e6" transform="translate(227.2 666.66) rotate(-64.92)"><tspan x="0" y="0">O</tspan></text>
    <text class="uuid-52bc1cf9-dab2-4c04-92e1-8df780e4d5e6" transform="translate(236.03 647.97) rotate(-61.1)"><tspan x="0" y="0">N</tspan></text>
    <text class="uuid-52bc1cf9-dab2-4c04-92e1-8df780e4d5e6" transform="translate(245.8 630.47) rotate(-57.52)"><tspan x="0" y="0">R</tspan></text>
    <text class="uuid-52bc1cf9-dab2-4c04-92e1-8df780e4d5e6" transform="translate(255.62 615.13) rotate(-54.06)"><tspan x="0" y="0">A</tspan></text>
    <text class="uuid-52bc1cf9-dab2-4c04-92e1-8df780e4d5e6" transform="translate(267.06 599.64) rotate(-51.6)"><tspan x="0" y="0"> </tspan></text>
    <text class="uuid-52bc1cf9-dab2-4c04-92e1-8df780e4d5e6" transform="translate(271.54 593.87) rotate(-49.26)"><tspan x="0" y="0">T</tspan></text>
    <text class="uuid-52bc1cf9-dab2-4c04-92e1-8df780e4d5e6" transform="translate(283.43 580.11) rotate(-45.68)"><tspan x="0" y="0">U</tspan></text>
    <text class="uuid-52bc1cf9-dab2-4c04-92e1-8df780e4d5e6" transform="translate(298.3 565.16) rotate(-43.1)"><tspan x="0" y="0"> </tspan></text>
    <text class="uuid-52bc1cf9-dab2-4c04-92e1-8df780e4d5e6" transform="translate(303.63 560.12) rotate(-40.98)"><tspan x="0" y="0">P</tspan></text>
    <text class="uuid-52bc1cf9-dab2-4c04-92e1-8df780e4d5e6" transform="translate(313.8 551.22) rotate(-38.24)"><tspan x="0" y="0">A</tspan></text>
    <text class="uuid-52bc1cf9-dab2-4c04-92e1-8df780e4d5e6" transform="translate(328.95 539.41) rotate(-35.07)"><tspan x="0" y="0">L</tspan></text>
    <text class="uuid-52bc1cf9-dab2-4c04-92e1-8df780e4d5e6" transform="translate(342.02 530.25) rotate(-31.9)"><tspan x="0" y="0">A</tspan></text>
    <text class="uuid-52bc1cf9-dab2-4c04-92e1-8df780e4d5e6" transform="translate(358.36 520.18) rotate(-28.65)"><tspan x="0" y="0">B</tspan></text>
    <text class="uuid-52bc1cf9-dab2-4c04-92e1-8df780e4d5e6" transform="translate(373.25 512.09) rotate(-25.49)"><tspan x="0" y="0">R</tspan></text>
    <text class="uuid-52bc1cf9-dab2-4c04-92e1-8df780e4d5e6" transform="translate(389.75 504.27) rotate(-22.13)"><tspan x="0" y="0">A</tspan></text>
    <text class="uuid-52bc1cf9-dab2-4c04-92e1-8df780e4d5e6" transform="translate(407.64 497.17) rotate(-19.75)"><tspan x="0" y="0"> </tspan></text>
    <text class="uuid-52bc1cf9-dab2-4c04-92e1-8df780e4d5e6" transform="translate(414.63 494.69) rotate(-18.43)"><tspan x="0" y="0"> </tspan></text>
    <text class="uuid-52bc1cf9-dab2-4c04-92e1-8df780e4d5e6" transform="translate(421.65 492.38) rotate(-17.1)"><tspan x="0" y="0"> </tspan></text>
    <text class="uuid-52bc1cf9-dab2-4c04-92e1-8df780e4d5e6" transform="translate(428.72 490.23) rotate(-15.78)"><tspan x="0" y="0"> </tspan></text>
    <text class="uuid-52bc1cf9-dab2-4c04-92e1-8df780e4d5e6" transform="translate(435.87 488.24) rotate(-14.46)"><tspan x="0" y="0"> </tspan></text>
    <text class="uuid-52bc1cf9-dab2-4c04-92e1-8df780e4d5e6" transform="translate(443.01 486.42) rotate(-13.14)"><tspan x="0" y="0"> </tspan></text>
    <text class="uuid-52bc1cf9-dab2-4c04-92e1-8df780e4d5e6" transform="translate(450.26 484.75) rotate(-11.82)"><tspan x="0" y="0"> </tspan></text>
    <text class="uuid-52bc1cf9-dab2-4c04-92e1-8df780e4d5e6" transform="translate(457.51 483.26) rotate(-10.51)"><tspan x="0" y="0"> </tspan></text>
    <text class="uuid-52bc1cf9-dab2-4c04-92e1-8df780e4d5e6" transform="translate(464.78 481.94) rotate(-9.2)"><tspan x="0" y="0"> </tspan></text>
    <text class="uuid-52bc1cf9-dab2-4c04-92e1-8df780e4d5e6" transform="translate(472.09 480.78) rotate(-7.89)"><tspan x="0" y="0"> </tspan></text>
    <text class="uuid-52bc1cf9-dab2-4c04-92e1-8df780e4d5e6" transform="translate(479.42 479.79) rotate(-6.58)"><tspan x="0" y="0"> </tspan></text>
    <text class="uuid-52bc1cf9-dab2-4c04-92e1-8df780e4d5e6" transform="translate(486.8 478.96) rotate(-5.28)"><tspan x="0" y="0"> </tspan></text>
    <text class="uuid-52bc1cf9-dab2-4c04-92e1-8df780e4d5e6" transform="translate(494.17 478.3) rotate(-3.98)"><tspan x="0" y="0"> </tspan></text>
    <text class="uuid-52bc1cf9-dab2-4c04-92e1-8df780e4d5e6" transform="translate(501.55 477.81) rotate(-2.69)"><tspan x="0" y="0"> </tspan></text>
    <text class="uuid-52bc1cf9-dab2-4c04-92e1-8df780e4d5e6" transform="translate(508.95 477.49) rotate(-1.4)"><tspan x="0" y="0"> </tspan></text>
    <text class="uuid-52bc1cf9-dab2-4c04-92e1-8df780e4d5e6" transform="translate(516.28 477.23) rotate(.91)"><tspan x="0" y="0">B</tspan></text>
    <text class="uuid-52bc1cf9-dab2-4c04-92e1-8df780e4d5e6" transform="translate(533.29 477.52) rotate(3.67)"><tspan x="0" y="0">E</tspan></text>
    <text class="uuid-52bc1cf9-dab2-4c04-92e1-8df780e4d5e6" transform="translate(550.38 478.63) rotate(6.93)"><tspan x="0" y="0">N</tspan></text>
    <text class="uuid-52bc1cf9-dab2-4c04-92e1-8df780e4d5e6" transform="translate(570.24 481.09) rotate(10.55)"><tspan x="0" y="0">D</tspan></text>
    <text class="uuid-52bc1cf9-dab2-4c04-92e1-8df780e4d5e6" transform="translate(590.83 485.11) rotate(13.35)"><tspan x="0" y="0">I</tspan></text>
    <text class="uuid-52bc1cf9-dab2-4c04-92e1-8df780e4d5e6" transform="translate(601.1 487.5) rotate(15.92)"><tspan x="0" y="0">T</tspan></text>
    <text class="uuid-52bc1cf9-dab2-4c04-92e1-8df780e4d5e6" transform="translate(618.11 492.36) rotate(19.31)"><tspan x="0" y="0">O</tspan></text>
    <text class="uuid-52bc1cf9-dab2-4c04-92e1-8df780e4d5e6" transform="translate(637.66 499.42) rotate(21.83)"><tspan x="0" y="0"> </tspan></text>
    <text class="uuid-52bc1cf9-dab2-4c04-92e1-8df780e4d5e6" transform="translate(644.49 502.11) rotate(23.91)"><tspan x="0" y="0">S</tspan></text>
    <text class="uuid-52bc1cf9-dab2-4c04-92e1-8df780e4d5e6" transform="translate(658.95 508.56) rotate(26.87)"><tspan x="0" y="0">E</tspan></text>
    <text class="uuid-52bc1cf9-dab2-4c04-92e1-8df780e4d5e6" transform="translate(674.22 516.33) rotate(30.13)"><tspan x="0" y="0">A</tspan></text>
    <text class="uuid-52bc1cf9-dab2-4c04-92e1-8df780e4d5e6" transform="translate(690.15 525.66) rotate(33.15)"><tspan x="0" y="0">S</tspan></text>
  </g>
  <g id="uuid-bb137f15-9cb2-4dbd-a97b-0224dc4025e8" data-name="Layer 14">
    <text class="uuid-23f5bf20-93d2-4aaa-a1ba-51c0f6321030" transform="translate(675.06 344.55) rotate(43.15)"><tspan x="0" y="0">E</tspan></text>
    <text class="uuid-23f5bf20-93d2-4aaa-a1ba-51c0f6321030" transform="translate(686.07 355) rotate(46.74)"><tspan x="0" y="0">S</tspan></text>
    <text class="uuid-23f5bf20-93d2-4aaa-a1ba-51c0f6321030" transform="translate(695.37 364.91) rotate(50.53)"><tspan x="0" y="0">C</tspan></text>
    <text class="uuid-23f5bf20-93d2-4aaa-a1ba-51c0f6321030" transform="translate(705.92 377.81) rotate(54.93)"><tspan x="0" y="0">U</tspan></text>
    <text class="uuid-23f5bf20-93d2-4aaa-a1ba-51c0f6321030" transform="translate(716.44 392.99) rotate(59.34)"><tspan x="0" y="0">C</tspan></text>
    <text class="uuid-23f5bf20-93d2-4aaa-a1ba-51c0f6321030" transform="translate(724.92 407.32) rotate(64.04)"><tspan x="0" y="0">H</tspan></text>
    <text class="uuid-23f5bf20-93d2-4aaa-a1ba-51c0f6321030" transform="translate(733.8 425.99) rotate(68.62)"><tspan x="0" y="0">A</tspan></text>
    <text class="uuid-23f5bf20-93d2-4aaa-a1ba-51c0f6321030" transform="translate(739.35 440.62) rotate(71.53)"><tspan x="0" y="0"> </tspan></text>
    <text class="uuid-23f5bf20-93d2-4aaa-a1ba-51c0f6321030" transform="translate(741.72 447.52) rotate(74.58)"><tspan x="0" y="0">C</tspan></text>
    <text class="uuid-23f5bf20-93d2-4aaa-a1ba-51c0f6321030" transform="translate(746.12 463.6) rotate(79.09)"><tspan x="0" y="0">O</tspan></text>
    <text class="uuid-23f5bf20-93d2-4aaa-a1ba-51c0f6321030" transform="translate(749.6 482.2) rotate(83.77)"><tspan x="0" y="0">N</tspan></text>
    <text class="uuid-23f5bf20-93d2-4aaa-a1ba-51c0f6321030" transform="translate(751.37 500.51) rotate(86.98)"><tspan x="0" y="0"> </tspan></text>
    <text class="uuid-23f5bf20-93d2-4aaa-a1ba-51c0f6321030" transform="translate(751.71 507.18) rotate(89.07)"><tspan x="0" y="0">A</tspan></text>
    <text class="uuid-23f5bf20-93d2-4aaa-a1ba-51c0f6321030" transform="translate(751.93 522.68) rotate(94.37)"><tspan x="0" y="0">M</tspan></text>
    <text class="uuid-23f5bf20-93d2-4aaa-a1ba-51c0f6321030" transform="translate(750.04 545.08) rotate(99.57)"><tspan x="0" y="0">O</tspan></text>
    <text class="uuid-23f5bf20-93d2-4aaa-a1ba-51c0f6321030" transform="translate(746.76 563.73) rotate(104)"><tspan x="0" y="0">R</tspan></text>
  </g>
  <g id="uuid-672e8200-8ed2-47cf-8415-503b599d2330" data-name="Layer 15">
    <text class="uuid-23f5bf20-93d2-4aaa-a1ba-51c0f6321030" transform="translate(523.22 168.34) rotate(51.2)"><tspan x="0" y="0">C</tspan></text>
    <text class="uuid-23f5bf20-93d2-4aaa-a1ba-51c0f6321030" transform="translate(533.7 181.43) rotate(54.36)"><tspan x="0" y="0">O</tspan></text>
    <text class="uuid-23f5bf20-93d2-4aaa-a1ba-51c0f6321030" transform="translate(544.72 196.92) rotate(57.66)"><tspan x="0" y="0">N</tspan></text>
    <text class="uuid-23f5bf20-93d2-4aaa-a1ba-51c0f6321030" transform="translate(554.52 212.5) rotate(60.98)"><tspan x="0" y="0">O</tspan></text>
    <text class="uuid-23f5bf20-93d2-4aaa-a1ba-51c0f6321030" transform="translate(563.66 229.18) rotate(64.16)"><tspan x="0" y="0">C</tspan></text>
    <text class="uuid-23f5bf20-93d2-4aaa-a1ba-51c0f6321030" transform="translate(570.91 244.33) rotate(67.02)"><tspan x="0" y="0">E</tspan></text>
    <text class="uuid-23f5bf20-93d2-4aaa-a1ba-51c0f6321030" transform="translate(576.77 258.42) rotate(69.04)"><tspan x="0" y="0"> </tspan></text>
    <text class="uuid-23f5bf20-93d2-4aaa-a1ba-51c0f6321030" transform="translate(579.1 264.35) rotate(71.04)"><tspan x="0" y="0">T</tspan></text>
    <text class="uuid-23f5bf20-93d2-4aaa-a1ba-51c0f6321030" transform="translate(584.59 280.47) rotate(74.22)"><tspan x="0" y="0">U</tspan></text>
    <text class="uuid-23f5bf20-93d2-4aaa-a1ba-51c0f6321030" transform="translate(589.5 298.43) rotate(76.54)"><tspan x="0" y="0"> </tspan></text>
    <text class="uuid-23f5bf20-93d2-4aaa-a1ba-51c0f6321030" transform="translate(591.24 305.57) rotate(78.55)"><tspan x="0" y="0">P</tspan></text>
    <text class="uuid-23f5bf20-93d2-4aaa-a1ba-51c0f6321030" transform="translate(594.22 320.35) rotate(81.58)"><tspan x="0" y="0">O</tspan></text>
    <text class="uuid-23f5bf20-93d2-4aaa-a1ba-51c0f6321030" transform="translate(596.94 339.18) rotate(84.93)"><tspan x="0" y="0">D</tspan></text>
    <text class="uuid-23f5bf20-93d2-4aaa-a1ba-51c0f6321030" transform="translate(598.5 357.95) rotate(87.92)"><tspan x="0" y="0">E</tspan></text>
    <text class="uuid-23f5bf20-93d2-4aaa-a1ba-51c0f6321030" transform="translate(599.04 373.17) rotate(90.93)"><tspan x="0" y="0">R</tspan></text>
    <text class="uuid-d3d9ac57-66fb-4b0c-a813-57281664e451" transform="translate(1502.18 168.34) rotate(51.2)"><tspan x="0" y="0">C</tspan></text>
    <text class="uuid-d3d9ac57-66fb-4b0c-a813-57281664e451" transform="translate(1512.66 181.43) rotate(54.36)"><tspan x="0" y="0">O</tspan></text>
    <text class="uuid-d3d9ac57-66fb-4b0c-a813-57281664e451" transform="translate(1523.68 196.92) rotate(57.66)"><tspan x="0" y="0">N</tspan></text>
    <text class="uuid-d3d9ac57-66fb-4b0c-a813-57281664e451" transform="translate(1533.47 212.5) rotate(60.98)"><tspan x="0" y="0">O</tspan></text>
    <text class="uuid-d3d9ac57-66fb-4b0c-a813-57281664e451" transform="translate(1542.62 229.18) rotate(64.16)"><tspan x="0" y="0">C</tspan></text>
    <text class="uuid-d3d9ac57-66fb-4b0c-a813-57281664e451" transform="translate(1549.87 244.33) rotate(67.02)"><tspan x="0" y="0">E</tspan></text>
    <text class="uuid-d3d9ac57-66fb-4b0c-a813-57281664e451" transform="translate(1555.72 258.42) rotate(69.04)"><tspan x="0" y="0"> </tspan></text>
    <text class="uuid-d3d9ac57-66fb-4b0c-a813-57281664e451" transform="translate(1558.06 264.35) rotate(71.04)"><tspan x="0" y="0">T</tspan></text>
    <text class="uuid-d3d9ac57-66fb-4b0c-a813-57281664e451" transform="translate(1563.55 280.47) rotate(74.22)"><tspan x="0" y="0">U</tspan></text>
    <text class="uuid-d3d9ac57-66fb-4b0c-a813-57281664e451" transform="translate(1568.46 298.43) rotate(76.54)"><tspan x="0" y="0"> </tspan></text>
    <text class="uuid-d3d9ac57-66fb-4b0c-a813-57281664e451" transform="translate(1570.2 305.57) rotate(78.55)"><tspan x="0" y="0">P</tspan></text>
    <text class="uuid-d3d9ac57-66fb-4b0c-a813-57281664e451" transform="translate(1573.18 320.35) rotate(81.58)"><tspan x="0" y="0">O</tspan></text>
    <text class="uuid-d3d9ac57-66fb-4b0c-a813-57281664e451" transform="translate(1575.9 339.18) rotate(84.93)"><tspan x="0" y="0">D</tspan></text>
    <text class="uuid-d3d9ac57-66fb-4b0c-a813-57281664e451" transform="translate(1577.46 357.95) rotate(87.92)"><tspan x="0" y="0">E</tspan></text>
    <text class="uuid-d3d9ac57-66fb-4b0c-a813-57281664e451" transform="translate(1578 373.17) rotate(90.93)"><tspan x="0" y="0">R</tspan></text>
  </g>
  <g id="uuid-4eac5e39-251c-4402-8f3a-80759cfae931" data-name="Layer 16">
    <text class="uuid-23f5bf20-93d2-4aaa-a1ba-51c0f6321030" transform="translate(423.66 678.98) rotate(-27.07)"><tspan x="0" y="0">V</tspan></text>
    <text class="uuid-23f5bf20-93d2-4aaa-a1ba-51c0f6321030" transform="translate(439.64 670.68) rotate(-30.01)"><tspan x="0" y="0">E</tspan></text>
    <text class="uuid-23f5bf20-93d2-4aaa-a1ba-51c0f6321030" transform="translate(454.01 662.3) rotate(-32.91)"><tspan x="0" y="0">R</tspan></text>
    <text class="uuid-23f5bf20-93d2-4aaa-a1ba-51c0f6321030" transform="translate(468.65 652.63) rotate(-35.11)"><tspan x="0" y="0"> </tspan></text>
    <text class="uuid-23f5bf20-93d2-4aaa-a1ba-51c0f6321030" transform="translate(475.66 647.73) rotate(-37.34)"><tspan x="0" y="0">C</tspan></text>
    <text class="uuid-23f5bf20-93d2-4aaa-a1ba-51c0f6321030" transform="translate(490.17 636.57) rotate(-40.61)"><tspan x="0" y="0">O</tspan></text>
    <text class="uuid-23f5bf20-93d2-4aaa-a1ba-51c0f6321030" transform="translate(505.73 623.06) rotate(-44.02)"><tspan x="0" y="0">N</tspan></text>
    <text class="uuid-23f5bf20-93d2-4aaa-a1ba-51c0f6321030" transform="translate(519.77 609.23) rotate(-46.39)"><tspan x="0" y="0"> </tspan></text>
    <text class="uuid-23f5bf20-93d2-4aaa-a1ba-51c0f6321030" transform="translate(525.18 603.59) rotate(-48.41)"><tspan x="0" y="0">A</tspan></text>
    <text class="uuid-23f5bf20-93d2-4aaa-a1ba-51c0f6321030" transform="translate(536.62 590.69) rotate(-51.89)"><tspan x="0" y="0">M</tspan></text>
    <text class="uuid-23f5bf20-93d2-4aaa-a1ba-51c0f6321030" transform="translate(551.46 571.45) rotate(-55.68)"><tspan x="0" y="0">O</tspan></text>
    <text class="uuid-23f5bf20-93d2-4aaa-a1ba-51c0f6321030" transform="translate(562.93 554.4) rotate(-58.91)"><tspan x="0" y="0">R</tspan></text>
    <text class="uuid-d3d9ac57-66fb-4b0c-a813-57281664e451" transform="translate(1402.62 678.98) rotate(-27.07)"><tspan x="0" y="0">V</tspan></text>
    <text class="uuid-d3d9ac57-66fb-4b0c-a813-57281664e451" transform="translate(1418.6 670.68) rotate(-30.01)"><tspan x="0" y="0">E</tspan></text>
    <text class="uuid-d3d9ac57-66fb-4b0c-a813-57281664e451" transform="translate(1432.96 662.3) rotate(-32.91)"><tspan x="0" y="0">R</tspan></text>
    <text class="uuid-d3d9ac57-66fb-4b0c-a813-57281664e451" transform="translate(1447.61 652.63) rotate(-35.11)"><tspan x="0" y="0"> </tspan></text>
    <text class="uuid-d3d9ac57-66fb-4b0c-a813-57281664e451" transform="translate(1454.62 647.73) rotate(-37.34)"><tspan x="0" y="0">C</tspan></text>
    <text class="uuid-d3d9ac57-66fb-4b0c-a813-57281664e451" transform="translate(1469.13 636.57) rotate(-40.61)"><tspan x="0" y="0">O</tspan></text>
    <text class="uuid-d3d9ac57-66fb-4b0c-a813-57281664e451" transform="translate(1484.69 623.06) rotate(-44.02)"><tspan x="0" y="0">N</tspan></text>
    <text class="uuid-d3d9ac57-66fb-4b0c-a813-57281664e451" transform="translate(1498.73 609.23) rotate(-46.39)"><tspan x="0" y="0"> </tspan></text>
    <text class="uuid-d3d9ac57-66fb-4b0c-a813-57281664e451" transform="translate(1504.14 603.59) rotate(-48.41)"><tspan x="0" y="0">A</tspan></text>
    <text class="uuid-d3d9ac57-66fb-4b0c-a813-57281664e451" transform="translate(1515.58 590.69) rotate(-51.89)"><tspan x="0" y="0">M</tspan></text>
    <text class="uuid-d3d9ac57-66fb-4b0c-a813-57281664e451" transform="translate(1530.42 571.45) rotate(-55.68)"><tspan x="0" y="0">O</tspan></text>
    <text class="uuid-d3d9ac57-66fb-4b0c-a813-57281664e451" transform="translate(1541.88 554.4) rotate(-58.91)"><tspan x="0" y="0">R</tspan></text>
  </g>
  <g id="uuid-4279d12c-6e7f-4ae6-9c65-52d9683b0916" data-name="Layer 17">
    <text class="uuid-23f5bf20-93d2-4aaa-a1ba-51c0f6321030" transform="translate(314.62 646.19) rotate(54.84)"><tspan x="0" y="0">E</tspan></text>
    <text class="uuid-23f5bf20-93d2-4aaa-a1ba-51c0f6321030" transform="translate(324.61 660.09) rotate(51.05)"><tspan x="0" y="0">S</tspan></text>
    <text class="uuid-23f5bf20-93d2-4aaa-a1ba-51c0f6321030" transform="translate(334.49 672.17) rotate(47.04)"><tspan x="0" y="0">T</tspan></text>
    <text class="uuid-23f5bf20-93d2-4aaa-a1ba-51c0f6321030" transform="translate(346.71 685.1) rotate(43.09)"><tspan x="0" y="0">A</tspan></text>
    <text class="uuid-23f5bf20-93d2-4aaa-a1ba-51c0f6321030" transform="translate(359.68 697.04) rotate(38.93)"><tspan x="0" y="0">R</tspan></text>
    <text class="uuid-23f5bf20-93d2-4aaa-a1ba-51c0f6321030" transform="translate(373.86 708.19) rotate(35.79)"><tspan x="0" y="0"> </tspan></text>
    <text class="uuid-23f5bf20-93d2-4aaa-a1ba-51c0f6321030" transform="translate(381.15 713.45) rotate(32.78)"><tspan x="0" y="0">E</tspan></text>
    <text class="uuid-23f5bf20-93d2-4aaa-a1ba-51c0f6321030" transform="translate(395.76 722.73) rotate(28.38)"><tspan x="0" y="0">N</tspan></text>
    <text class="uuid-23f5bf20-93d2-4aaa-a1ba-51c0f6321030" transform="translate(413.66 732.08) rotate(24.96)"><tspan x="0" y="0"> </tspan></text>
    <text class="uuid-23f5bf20-93d2-4aaa-a1ba-51c0f6321030" transform="translate(421.83 735.88) rotate(21.93)"><tspan x="0" y="0">E</tspan></text>
    <text class="uuid-23f5bf20-93d2-4aaa-a1ba-51c0f6321030" transform="translate(437.93 742.26) rotate(17.42)"><tspan x="0" y="0">Q</tspan></text>
    <text class="uuid-23f5bf20-93d2-4aaa-a1ba-51c0f6321030" transform="translate(458.23 748.41) rotate(12.51)"><tspan x="0" y="0">U</tspan></text>
    <text class="uuid-23f5bf20-93d2-4aaa-a1ba-51c0f6321030" transform="translate(478.3 752.58) rotate(8.67)"><tspan x="0" y="0">I</tspan></text>
    <text class="uuid-23f5bf20-93d2-4aaa-a1ba-51c0f6321030" transform="translate(490.42 754.37) rotate(5.3)"><tspan x="0" y="0">L</tspan></text>
    <text class="uuid-23f5bf20-93d2-4aaa-a1ba-51c0f6321030" transform="translate(507.01 755.73) rotate(1.97)"><tspan x="0" y="0">I</tspan></text>
    <text class="uuid-23f5bf20-93d2-4aaa-a1ba-51c0f6321030" transform="translate(519.3 756.11) rotate(-1.51)"><tspan x="0" y="0">B</tspan></text>
    <text class="uuid-23f5bf20-93d2-4aaa-a1ba-51c0f6321030" transform="translate(537.56 755.48) rotate(-5.73)"><tspan x="0" y="0">R</tspan></text>
    <text class="uuid-23f5bf20-93d2-4aaa-a1ba-51c0f6321030" transform="translate(555.57 753.45) rotate(-9.26)"><tspan x="0" y="0">I</tspan></text>
    <text class="uuid-23f5bf20-93d2-4aaa-a1ba-51c0f6321030" transform="translate(567.78 751.46) rotate(-13.16)"><tspan x="0" y="0">O</tspan></text>
  </g>
  <g id="uuid-7a79734c-51bc-4f63-a5ce-b159ad577a97" data-name="Layer 18">
    <text class="uuid-3265dc1f-8f38-4df5-8258-7e2c2c6aa1c7" transform="translate(-598.32 374.02) rotate(88.51)"><tspan x="0" y="0">S</tspan></text>
    <text class="uuid-3265dc1f-8f38-4df5-8258-7e2c2c6aa1c7" transform="translate(-597.8 392.64) rotate(85.3)"><tspan x="0" y="0">E</tspan></text>
    <text class="uuid-3265dc1f-8f38-4df5-8258-7e2c2c6aa1c7" transform="translate(-595.94 413.13) rotate(82.83)"><tspan x="0" y="0"> </tspan></text>
    <text class="uuid-3265dc1f-8f38-4df5-8258-7e2c2c6aa1c7" transform="translate(-594.98 421.49) rotate(80.48)"><tspan x="0" y="0">A</tspan></text>
    <text class="uuid-3265dc1f-8f38-4df5-8258-7e2c2c6aa1c7" transform="translate(-591.43 443.09) rotate(76.05)"><tspan x="0" y="0">M</tspan></text>
    <text class="uuid-3265dc1f-8f38-4df5-8258-7e2c2c6aa1c7" transform="translate(-583.49 473.75) rotate(71.61)"><tspan x="0" y="0">A</tspan></text>
    <text class="uuid-3265dc1f-8f38-4df5-8258-7e2c2c6aa1c7" transform="translate(-576.61 494.21) rotate(67.96)"><tspan x="0" y="0">B</tspan></text>
    <text class="uuid-3265dc1f-8f38-4df5-8258-7e2c2c6aa1c7" transform="translate(-568.1 514.92) rotate(64.41)"><tspan x="0" y="0">L</tspan></text>
    <text class="uuid-3265dc1f-8f38-4df5-8258-7e2c2c6aa1c7" transform="translate(-559.19 533.34) rotate(60.99)"><tspan x="0" y="0">E</tspan></text>
    <text class="uuid-3265dc1f-8f38-4df5-8258-7e2c2c6aa1c7" transform="translate(-549.07 551.24) rotate(58.52)"><tspan x="0" y="0"> </tspan></text>
    <text class="uuid-3265dc1f-8f38-4df5-8258-7e2c2c6aa1c7" transform="translate(-544.3 558.99) rotate(57.02)"><tspan x="0" y="0"> </tspan></text>
    <text class="uuid-3265dc1f-8f38-4df5-8258-7e2c2c6aa1c7" transform="translate(-539.32 566.6) rotate(55.53)"><tspan x="0" y="0"> </tspan></text>
    <text class="uuid-3265dc1f-8f38-4df5-8258-7e2c2c6aa1c7" transform="translate(-534.16 574.08) rotate(54.03)"><tspan x="0" y="0"> </tspan></text>
    <text class="uuid-3265dc1f-8f38-4df5-8258-7e2c2c6aa1c7" transform="translate(-528.8 581.41) rotate(52.54)"><tspan x="0" y="0"> </tspan></text>
    <text class="uuid-3265dc1f-8f38-4df5-8258-7e2c2c6aa1c7" transform="translate(-523.26 588.6) rotate(51.06)"><tspan x="0" y="0"> </tspan></text>
    <text class="uuid-3265dc1f-8f38-4df5-8258-7e2c2c6aa1c7" transform="translate(-517.52 595.66) rotate(49.56)"><tspan x="0" y="0"> </tspan></text>
    <text class="uuid-3265dc1f-8f38-4df5-8258-7e2c2c6aa1c7" transform="translate(-511.6 602.56) rotate(48.07)"><tspan x="0" y="0"> </tspan></text>
    <text class="uuid-3265dc1f-8f38-4df5-8258-7e2c2c6aa1c7" transform="translate(-505.5 609.31) rotate(46.58)"><tspan x="0" y="0"> </tspan></text>
    <text class="uuid-3265dc1f-8f38-4df5-8258-7e2c2c6aa1c7" transform="translate(-499.24 615.9) rotate(45.1)"><tspan x="0" y="0"> </tspan></text>
    <text class="uuid-3265dc1f-8f38-4df5-8258-7e2c2c6aa1c7" transform="translate(-492.82 622.3) rotate(43.61)"><tspan x="0" y="0"> </tspan></text>
    <text class="uuid-3265dc1f-8f38-4df5-8258-7e2c2c6aa1c7" transform="translate(-486.04 628.85) rotate(41.16)"><tspan x="0" y="0">E</tspan></text>
    <text class="uuid-3265dc1f-8f38-4df5-8258-7e2c2c6aa1c7" transform="translate(-470.6 642.29) rotate(37.63)"><tspan x="0" y="0">X</tspan></text>
    <text class="uuid-3265dc1f-8f38-4df5-8258-7e2c2c6aa1c7" transform="translate(-452.74 655.94) rotate(34.13)"><tspan x="0" y="0">P</tspan></text>
    <text class="uuid-3265dc1f-8f38-4df5-8258-7e2c2c6aa1c7" transform="translate(-437.23 666.43) rotate(30.98)"><tspan x="0" y="0">A</tspan></text>
    <text class="uuid-3265dc1f-8f38-4df5-8258-7e2c2c6aa1c7" transform="translate(-419.11 677.3) rotate(27.18)"><tspan x="0" y="0">N</tspan></text>
    <text class="uuid-3265dc1f-8f38-4df5-8258-7e2c2c6aa1c7" transform="translate(-396.66 688.73) rotate(22.96)"><tspan x="0" y="0">D</tspan></text>
    <text class="uuid-3265dc1f-8f38-4df5-8258-7e2c2c6aa1c7" transform="translate(-372.99 698.58) rotate(19.13)"><tspan x="0" y="0">E</tspan></text>
    <text class="uuid-3265dc1f-8f38-4df5-8258-7e2c2c6aa1c7" transform="translate(-353.99 705.01) rotate(16.73)"><tspan x="0" y="0"> </tspan></text>
    <text class="uuid-3265dc1f-8f38-4df5-8258-7e2c2c6aa1c7" transform="translate(-346.85 707.29) rotate(14.35)"><tspan x="0" y="0">T</tspan></text>
    <text class="uuid-3265dc1f-8f38-4df5-8258-7e2c2c6aa1c7" transform="translate(-324.39 712.99) rotate(10.34)"><tspan x="0" y="0">U</tspan></text>
    <text class="uuid-3265dc1f-8f38-4df5-8258-7e2c2c6aa1c7" transform="translate(-299.84 717.21) rotate(7.53)"><tspan x="0" y="0"> </tspan></text>
    <text class="uuid-3265dc1f-8f38-4df5-8258-7e2c2c6aa1c7" transform="translate(-290.72 718.67) rotate(4.25)"><tspan x="0" y="0">M</tspan></text>
    <text class="uuid-3265dc1f-8f38-4df5-8258-7e2c2c6aa1c7" transform="translate(-260.04 720.54) rotate(.93)"><tspan x="0" y="0">E</tspan></text>
    <text class="uuid-3265dc1f-8f38-4df5-8258-7e2c2c6aa1c7" transform="translate(-239.17 720.7) rotate(-3.65)"><tspan x="0" y="0">N</tspan></text>
    <text class="uuid-3265dc1f-8f38-4df5-8258-7e2c2c6aa1c7" transform="translate(-214.14 718.98) rotate(-7.61)"><tspan x="0" y="0">T</tspan></text>
    <text class="uuid-3265dc1f-8f38-4df5-8258-7e2c2c6aa1c7" transform="translate(-191.34 715.82) rotate(-11.2)"><tspan x="0" y="0">E</tspan></text>
    <text class="uuid-23f5bf20-93d2-4aaa-a1ba-51c0f6321030" transform="translate(424.45 396.08) rotate(85.77)"><tspan x="0" y="0">S</tspan></text>
    <text class="uuid-23f5bf20-93d2-4aaa-a1ba-51c0f6321030" transform="translate(425.58 410.54) rotate(83.21)"><tspan x="0" y="0">E</tspan></text>
    <text class="uuid-23f5bf20-93d2-4aaa-a1ba-51c0f6321030" transform="translate(427.58 426.34) rotate(81.19)"><tspan x="0" y="0"> </tspan></text>
    <text class="uuid-23f5bf20-93d2-4aaa-a1ba-51c0f6321030" transform="translate(428.67 433.56) rotate(79.25)"><tspan x="0" y="0">A</tspan></text>
    <text class="uuid-23f5bf20-93d2-4aaa-a1ba-51c0f6321030" transform="translate(431.78 449.99) rotate(75.82)"><tspan x="0" y="0">M</tspan></text>
    <text class="uuid-23f5bf20-93d2-4aaa-a1ba-51c0f6321030" transform="translate(437.78 472.9) rotate(72.4)"><tspan x="0" y="0">A</tspan></text>
    <text class="uuid-23f5bf20-93d2-4aaa-a1ba-51c0f6321030" transform="translate(442.87 488.69) rotate(69.53)"><tspan x="0" y="0">B</tspan></text>
    <text class="uuid-23f5bf20-93d2-4aaa-a1ba-51c0f6321030" transform="translate(448.96 504.72) rotate(66.73)"><tspan x="0" y="0">L</tspan></text>
    <text class="uuid-23f5bf20-93d2-4aaa-a1ba-51c0f6321030" transform="translate(455.26 519.2) rotate(64.03)"><tspan x="0" y="0">E</tspan></text>
    <text class="uuid-23f5bf20-93d2-4aaa-a1ba-51c0f6321030" transform="translate(462.34 533.47) rotate(62.01)"><tspan x="0" y="0"> </tspan></text>
    <text class="uuid-23f5bf20-93d2-4aaa-a1ba-51c0f6321030" transform="translate(466.05 540.37) rotate(60.69)"><tspan x="0" y="0"> </tspan></text>
    <text class="uuid-23f5bf20-93d2-4aaa-a1ba-51c0f6321030" transform="translate(469.91 547.18) rotate(59.36)"><tspan x="0" y="0"> </tspan></text>
    <text class="uuid-23f5bf20-93d2-4aaa-a1ba-51c0f6321030" transform="translate(473.92 553.89) rotate(58.05)"><tspan x="0" y="0"> </tspan></text>
    <text class="uuid-23f5bf20-93d2-4aaa-a1ba-51c0f6321030" transform="translate(478.1 560.52) rotate(56.73)"><tspan x="0" y="0"> </tspan></text>
    <text class="uuid-23f5bf20-93d2-4aaa-a1ba-51c0f6321030" transform="translate(482.42 567.05) rotate(55.41)"><tspan x="0" y="0"> </tspan></text>
    <text class="uuid-23f5bf20-93d2-4aaa-a1ba-51c0f6321030" transform="translate(486.89 573.47) rotate(54.09)"><tspan x="0" y="0"> </tspan></text>
    <text class="uuid-23f5bf20-93d2-4aaa-a1ba-51c0f6321030" transform="translate(491.5 579.79) rotate(52.78)"><tspan x="0" y="0"> </tspan></text>
    <text class="uuid-23f5bf20-93d2-4aaa-a1ba-51c0f6321030" transform="translate(496.26 585.99) rotate(51.47)"><tspan x="0" y="0"> </tspan></text>
    <text class="uuid-23f5bf20-93d2-4aaa-a1ba-51c0f6321030" transform="translate(501.17 592.11) rotate(50.15)"><tspan x="0" y="0"> </tspan></text>
    <text class="uuid-23f5bf20-93d2-4aaa-a1ba-51c0f6321030" transform="translate(506.19 598.08) rotate(48.84)"><tspan x="0" y="0"> </tspan></text>
    <text class="uuid-23f5bf20-93d2-4aaa-a1ba-51c0f6321030" transform="translate(511.37 603.96) rotate(47.53)"><tspan x="0" y="0"> </tspan></text>
    <text class="uuid-23f5bf20-93d2-4aaa-a1ba-51c0f6321030" transform="translate(516.69 609.72) rotate(46.22)"><tspan x="0" y="0"> </tspan></text>
    <text class="uuid-23f5bf20-93d2-4aaa-a1ba-51c0f6321030" transform="translate(522.13 615.35) rotate(44.9)"><tspan x="0" y="0"> </tspan></text>
    <text class="uuid-23f5bf20-93d2-4aaa-a1ba-51c0f6321030" transform="translate(527.68 620.84) rotate(43.6)"><tspan x="0" y="0"> </tspan></text>
    <text class="uuid-23f5bf20-93d2-4aaa-a1ba-51c0f6321030" transform="translate(533.38 626.21) rotate(42.28)"><tspan x="0" y="0"> </tspan></text>
    <text class="uuid-23f5bf20-93d2-4aaa-a1ba-51c0f6321030" transform="translate(539.2 631.46) rotate(40.97)"><tspan x="0" y="0"> </tspan></text>
    <text class="uuid-23f5bf20-93d2-4aaa-a1ba-51c0f6321030" transform="translate(545.12 636.56) rotate(39.66)"><tspan x="0" y="0"> </tspan></text>
    <text class="uuid-23f5bf20-93d2-4aaa-a1ba-51c0f6321030" transform="translate(551.26 641.67) rotate(37.65)"><tspan x="0" y="0">E</tspan></text>
    <text class="uuid-23f5bf20-93d2-4aaa-a1ba-51c0f6321030" transform="translate(564.09 651.49) rotate(34.82)"><tspan x="0" y="0">X</tspan></text>
    <text class="uuid-23f5bf20-93d2-4aaa-a1ba-51c0f6321030" transform="translate(578.6 661.46) rotate(31.99)"><tspan x="0" y="0">P</tspan></text>
    <text class="uuid-23f5bf20-93d2-4aaa-a1ba-51c0f6321030" transform="translate(591.26 669.32) rotate(29.43)"><tspan x="0" y="0">A</tspan></text>
    <text class="uuid-23f5bf20-93d2-4aaa-a1ba-51c0f6321030" transform="translate(605.76 677.44) rotate(26.39)"><tspan x="0" y="0">N</tspan></text>
    <text class="uuid-23f5bf20-93d2-4aaa-a1ba-51c0f6321030" transform="translate(623.21 686.01) rotate(23.06)"><tspan x="0" y="0">D</tspan></text>
    <text class="uuid-23f5bf20-93d2-4aaa-a1ba-51c0f6321030" transform="translate(641.49 693.64) rotate(20.01)"><tspan x="0" y="0">E</tspan></text>
    <text class="uuid-23f5bf20-93d2-4aaa-a1ba-51c0f6321030" transform="translate(656.52 698.98) rotate(17.97)"><tspan x="0" y="0"> </tspan></text>
    <text class="uuid-23f5bf20-93d2-4aaa-a1ba-51c0f6321030" transform="translate(663.16 701.18) rotate(15.96)"><tspan x="0" y="0">T</tspan></text>
    <text class="uuid-23f5bf20-93d2-4aaa-a1ba-51c0f6321030" transform="translate(680.53 706.08) rotate(12.76)"><tspan x="0" y="0">U</tspan></text>
    <text class="uuid-23f5bf20-93d2-4aaa-a1ba-51c0f6321030" transform="translate(699.46 710.18) rotate(10.44)"><tspan x="0" y="0"> </tspan></text>
    <text class="uuid-23f5bf20-93d2-4aaa-a1ba-51c0f6321030" transform="translate(707.46 711.76) rotate(7.76)"><tspan x="0" y="0">M</tspan></text>
    <text class="uuid-23f5bf20-93d2-4aaa-a1ba-51c0f6321030" transform="translate(730.95 714.76) rotate(4.41)"><tspan x="0" y="0">E</tspan></text>
    <text class="uuid-23f5bf20-93d2-4aaa-a1ba-51c0f6321030" transform="translate(747.07 715.96) rotate(1.45)"><tspan x="0" y="0">N</tspan></text>
    <text class="uuid-23f5bf20-93d2-4aaa-a1ba-51c0f6321030" transform="translate(766.48 716.34) rotate(-1.66)"><tspan x="0" y="0">T</tspan></text>
    <text class="uuid-23f5bf20-93d2-4aaa-a1ba-51c0f6321030" transform="translate(784.43 715.72) rotate(-4.5)"><tspan x="0" y="0">E</tspan></text>
  </g>
  <g id="uuid-331eefc8-2fca-4f13-b5ad-c81cad81d780" data-name="STARS">
    <polygon class="uuid-c99fc10e-4811-49f3-8f60-b7f247dc9562" points="239.67 696.25 235.7 700.66 239.98 704.78 234.17 703.54 232.74 709.31 230.91 703.66 225.2 705.3 229.18 700.89 224.9 696.77 230.71 698.01 232.13 692.24 233.97 697.9 239.67 696.25"/>
    <polygon class="uuid-c99fc10e-4811-49f3-8f60-b7f247dc9562" points="311.27 704.99 304.65 707.38 306.82 714.07 301.45 709.53 296.74 714.75 297.99 707.83 291.11 706.37 297.72 703.98 295.55 697.29 300.93 701.83 305.63 696.61 304.39 703.53 311.27 704.99"/>
    <polygon class="uuid-c99fc10e-4811-49f3-8f60-b7f247dc9562" points="270.82 697.38 267.78 704.25 274.55 707.52 267.08 708.32 267.64 715.81 263.21 709.74 257 713.98 260.04 707.1 253.27 703.84 260.75 703.04 260.18 695.55 264.62 701.62 270.82 697.38"/>
    <g>
      <polygon class="uuid-c99fc10e-4811-49f3-8f60-b7f247dc9562" points="501.22 176.7 499.24 171.1 493.58 172.89 497.44 168.38 493.05 164.37 498.89 165.46 500.17 159.66 502.15 165.26 507.81 163.46 503.95 167.98 508.34 171.98 502.5 170.89 501.22 176.7"/>
      <polygon class="uuid-c99fc10e-4811-49f3-8f60-b7f247dc9562" points="459.37 235.44 460.43 228.49 453.52 227.2 460.07 224.65 457.72 218.02 463.21 222.41 467.78 217.07 466.72 224.02 473.63 225.3 467.08 227.86 469.43 234.49 463.94 230.09 459.37 235.44"/>
      <polygon class="uuid-c99fc10e-4811-49f3-8f60-b7f247dc9562" points="485.36 203.53 480.77 197.58 474.67 201.97 477.53 195.02 470.68 191.94 478.13 190.94 477.37 183.47 481.96 189.42 488.06 185.02 485.2 191.97 492.05 195.06 484.6 196.05 485.36 203.53"/>
    </g>
    <g>
      <polygon class="uuid-c99fc10e-4811-49f3-8f60-b7f247dc9562" points="815 660.81 820.85 661.87 822.1 656.06 824.1 661.65 829.76 659.83 825.91 664.37 830.32 668.35 824.47 667.29 823.22 673.1 821.22 667.51 815.56 669.33 819.41 664.79 815 660.81"/>
      <polygon class="uuid-c99fc10e-4811-49f3-8f60-b7f247dc9562" points="784.79 595.31 790.3 599.68 794.84 594.32 793.81 601.28 800.73 602.54 794.19 605.12 796.56 611.74 791.05 607.37 786.5 612.73 787.54 605.77 780.62 604.51 787.16 601.93 784.79 595.31"/>
      <polygon class="uuid-c99fc10e-4811-49f3-8f60-b7f247dc9562" points="799.59 633.71 807.03 632.69 806.24 625.21 810.85 631.15 816.93 626.73 814.1 633.69 820.97 636.74 813.52 637.77 814.31 645.24 809.7 639.31 803.62 643.73 806.45 636.77 799.59 633.71"/>
    </g>
  </g>
</svg>